<svg xmlns="http://www.w3.org/2000/svg" width="336" height="224" viewBox="0 -168 252 168"><rect width="100%" height="100%" y="-168" fill="#fff"/><path fill="none" stroke="#000" stroke-linecap="square" stroke-miterlimit="3.25" stroke-width=".8" d="M15.516-34.57v-.032l.004-.03v-.028l.007-.063v-.027l.004-.031v-.028l.004-.03v-.028l.004-.031.004-.028v-.027l.004-.031v-.028l.004-.027v-.027l.004-.028v-.027l.008-.055v-.027l.003-.027v-.028l.004-.027v-.028l.004-.027.004-.023v-.028l.004-.027v-.023l.004-.028v-.027l.004-.023v-.028l.004-.023.004-.028v-.023l.004-.023v-.028l.003-.023v-.028l.004-.023v-.023l.004-.024.004-.027v-.024l.004-.023v-.024l.004-.023v-.023l.004-.024.004-.027v-.024l.004-.023v-.024l.004-.02v-.023l.004-.023v-.023l.007-.047v-.024l.004-.023v-.02l.004-.023v-.024l.004-.023v-.02l.008-.046v-.02l.004-.023v-.024l.004-.02v-.023l.004-.02.004-.023v-.02l.003-.023v-.02l.004-.023v-.02l.004-.023v-.02l.004-.023.004-.02v-.019l.004-.023v-.02l.004-.02v-.023l.004-.02v-.019l.004-.02.004-.023v-.02l.003-.019v-.02l.024-.199.023-.195.02-.187.023-.188.02-.18.023-.175.024-.172.02-.168.023-.164.02-.164.023-.16.023-.157.02-.152.023-.148.02-.149.023-.148.023-.14.02-.145.023-.137.02-.137.023-.137.024-.132.02-.133.023-.13.02-.128.046-.25.02-.125.023-.121.02-.121.047-.235.02-.117.023-.117.02-.113.023-.114.023-.109.02-.113.023-.11.02-.105.023-.11.023-.105.02-.105.023-.106.02-.101.047-.203.02-.102.023-.102.023-.097.02-.098.023-.098.02-.097.023-.094.023-.098.02-.093.023-.094.02-.094.023-.09.024-.093.02-.09.023-.09.02-.09.023-.09.023-.086.02-.09.023-.086.02-.086.047-.171.02-.086.023-.082.02-.082.023-.086.023-.082.02-.082.023-.082.02-.083.023-.078.023-.082.02-.078.023-.078.02-.082.023-.078.024-.074.02-.078.023-.078.02-.079.046-.148 2.188-6.125 2.191-4.504 2.188-3.664 2.187-3.14 2.191-2.774 2.188-2.492 2.191-2.282 2.188-2.105 2.191-1.965 2.188-1.84 2.187-1.738 2.192-1.644 2.187-1.57 2.192-1.497 2.187-1.433 2.191-1.38 2.188-1.324 2.191-1.28 2.188-1.235 2.187-1.2 2.192-1.16 2.187-1.125 2.192-1.097 2.187-1.067 2.192-1.039 2.187-1.011 2.188-.989 2.191-.965 2.188-.945 2.19-.926 2.188-.906 2.192-.887 2.187-.867 2.192-.855 2.187-.836 2.188-.825 2.191-.804 2.188-.797 2.191-.781 2.188-.766 2.191-.758 2.187-.742 2.188-.734 2.191-.723 2.188-.711 2.191-.703 2.188-.691 2.191-.68 2.188-.676 2.191-.664 2.188-.656 2.187-.649 2.191-.64 2.188-.629 2.191-.625 2.188-.617 2.191-.614 2.188-.601 2.187-.598 2.192-.59 2.187-.586 2.192-.574 2.187-.574 2.192-.567 2.187-.558 2.191-.555 2.188-.551 2.187-.543 2.192-.539 2.187-.535 2.192-.527 2.187-.524 2.192-.519 2.187-.516 2.188-.508 2.191-.507 2.188-.5 2.191-.5 2.187-.493 2.192-.488 2.187-.484 2.188-.481 2.191-.48 2.188-.473 2.191-.469 2.188-.468 2.191-.461 2.188-.461 2.191-.457 2.187-.449 2.188-.454 2.191-.445 2.188-.441 2.191-.442 2.188-.437 2.191-.434 4.375-.859 2.192-.426"/><path fill="none" stroke="#00f" stroke-linecap="square" stroke-miterlimit="3.25" stroke-width=".8" d="M15.516-34.57v-.032l.004-.03v-.028l.007-.063v-.027l.004-.031v-.028l.004-.03v-.028l.004-.031.004-.028v-.027l.004-.031v-.028l.004-.027v-.027l.004-.028v-.027l.004-.031.004-.028v-.023l.003-.027v-.028l.004-.027v-.028l.008-.054v-.024l.004-.027v-.027l.004-.024v-.027l.004-.027v-.024l.004-.027.004-.024v-.027l.004-.023v-.024l.003-.027v-.024l.004-.027v-.023l.008-.047v-.028l.004-.023v-.023l.004-.024v-.023l.008-.047v-.028l.004-.023v-.023l.004-.024v-.023l.004-.024v-.023l.003-.02.004-.023v-.024l.004-.023v-.023l.004-.024v-.02l.004-.023v-.023l.004-.024.004-.02v-.023l.004-.023v-.024l.004-.02v-.023l.004-.02.004-.023v-.023l.003-.02v-.023l.004-.02v-.023l.004-.02v-.023l.004-.02.004-.023v-.02l.004-.019v-.023l.004-.02v-.02l.004-.023v-.02l.004-.019.004-.023v-.02l.003-.02V-37l.024-.203.023-.2.02-.19.023-.188.02-.18.023-.18.024-.175.02-.172.023-.168.02-.164.023-.164.023-.157.02-.156.023-.156.02-.149.046-.296.02-.145.023-.14.02-.141.047-.274.02-.136.023-.133.02-.13.046-.257.02-.125.023-.125.02-.125.047-.242.02-.117.023-.121.02-.118.046-.226.02-.113.023-.114.02-.113.046-.219.02-.105.023-.11.02-.105.023-.105.024-.102.02-.105.046-.204.02-.101.023-.098.02-.101.047-.196.019-.093.023-.098.02-.094.023-.098.024-.093.02-.094.023-.09.02-.094.046-.18.02-.09.023-.089.02-.09.023-.086.024-.09.02-.086.023-.086.02-.085.046-.172.02-.082.023-.086.02-.082.046-.164.02-.082.023-.082.02-.083.023-.078.024-.082.02-.078.023-.078.02-.082.023-.078.023-.074 2.188-6.285 2.191-4.614 2.188-3.75 2.187-3.203 2.191-2.824 2.188-2.543 2.191-2.32 2.188-2.141 2.191-1.992 2.188-1.867 2.187-1.762 2.192-1.672 2.187-1.586 2.192-1.516 2.187-1.453 2.191-1.39 2.188-1.344 2.191-1.293 2.188-1.25 2.187-1.207 2.192-1.172 2.187-1.14 2.192-1.106 2.187-1.074 2.192-1.051 2.187-1.02 2.188-1L79-101.91l2.188-.953 2.19-.93 2.188-.914 2.192-.895 2.187-.875 2.192-.859 2.187-.844 2.188-.828 2.191-.812 2.188-.801 2.191-.785 2.188-.774 2.191-.758 2.187-.75 2.188-.738 2.191-.726 2.188-.715 2.191-.707 2.188-.696 2.191-.683 2.188-.68 2.191-.668 2.188-.66 2.187-.648 2.191-.645 2.188-.637 2.191-.625 2.188-.621 2.191-.613 2.188-.605 2.187-.602 2.192-.594 2.187-.586 2.192-.578 2.187-.574 2.192-.57 2.187-.563 2.191-.555 2.188-.554 2.187-.543 2.192-.543 2.187-.535 2.192-.532 2.187-.527 2.192-.519 2.187-.516 2.188-.512 2.191-.508 2.188-.504 2.191-.5 2.187-.492 2.192-.492 2.187-.488 2.188-.481 2.191-.48 2.188-.477 2.191-.468 2.188-.469 2.191-.465 2.188-.461 2.191-.457 4.375-.906 2.191-.446 2.188-.445 2.191-.441 2.188-.438 2.191-.433 2.188-.434 2.187-.43 2.192-.425"/><path fill="none" stroke="red" stroke-linecap="square" stroke-miterlimit="3.25" stroke-width=".8" d="M15.516-34.57v-.032l.004-.03v-.028l.007-.063v-.027l.004-.031v-.028l.004-.03v-.028l.004-.031.004-.028v-.027l.004-.031v-.028l.004-.027v-.027l.004-.028v-.027l.008-.055v-.027l.003-.027v-.028l.004-.027v-.024l.008-.054v-.028l.004-.023v-.027l.004-.024v-.027l.004-.024v-.027l.004-.023.004-.028v-.023l.004-.028v-.023l.003-.023v-.024l.004-.027v-.024l.008-.047v-.023l.004-.027v-.024l.004-.023v-.024l.008-.047v-.023l.004-.023v-.02l.004-.023v-.024l.004-.023v-.024l.003-.023.004-.02v-.023l.004-.023v-.02l.004-.023v-.024l.004-.02v-.023l.004-.023.004-.02v-.023l.004-.02v-.023l.004-.02v-.023l.008-.04v-.023l.003-.02v-.019l.004-.023v-.02l.004-.02v-.023l.008-.039v-.02l.004-.023v-.02l.004-.019v-.02l.004-.019v-.02l.004-.019.004-.023v-.02l.003-.02v-.019l.024-.191.023-.188.02-.18.023-.175.02-.172.023-.168.024-.164.02-.157.023-.156.02-.148.023-.149.023-.144.02-.14.023-.141.02-.137.023-.133.023-.129.02-.129.023-.125.02-.12.047-.243.02-.117.023-.114.02-.113.023-.113.023-.11.02-.109.023-.105.02-.106.047-.203.02-.101.023-.098.02-.098.046-.195.02-.094.023-.09.02-.093.046-.18.02-.086.023-.09.02-.086.023-.086.024-.082.02-.086.046-.164.02-.078.023-.082.02-.078.047-.156.019-.075.023-.078.02-.074.047-.148.02-.07.023-.075.02-.07.046-.14.02-.071.023-.066.02-.07.047-.134.02-.066.023-.066.02-.067.023-.066.023-.063.02-.062.023-.067.02-.062.023-.063.023-.058.02-.063.023-.062.02-.059.023-.058.024-.063.02-.059.023-.058.02-.055.046-.117 2.188-4.297 2.191-2.804 2.188-2.098 2.187-1.676 2.191-1.406 2.188-1.203 2.191-1.059 2.188-.941L37.406-62l2.188-.773 2.187-.711 2.192-.657 2.187-.613 2.192-.57 2.187-.535 2.191-.504 2.188-.48 2.191-.454 2.188-.43 2.187-.41 2.192-.39 2.187-.375 2.192-.36 2.187-.347 2.192-.332 2.187-.32 2.188-.31 2.191-.3 2.188-.29 2.19-.276 2.188-.274 2.192-.262 2.187-.258 2.192-.246 2.187-.242 2.188-.234 2.191-.23 2.188-.223 2.191-.215 2.188-.215 2.191-.207 2.187-.203 2.188-.2 2.191-.19 2.188-.192 2.191-.184 2.188-.183 2.191-.176 2.188-.176 2.191-.172 2.188-.168 2.187-.164 2.191-.16 2.188-.16 2.191-.156 2.188-.153 2.191-.152 2.188-.149 2.187-.144 2.192-.144 2.187-.141 2.192-.137 2.187-.137 2.192-.136 2.187-.133 2.191-.129 4.375-.258 2.192-.125 2.187-.12 2.192-.126 2.187-.117 2.192-.121 2.187-.117 2.188-.114 2.191-.113 2.188-.113 2.191-.11 2.187-.113 2.192-.105 2.187-.11 2.188-.105 2.191-.102 2.188-.105 2.191-.102 2.188-.101 2.191-.098 2.188-.102 2.191-.097 2.187-.094 2.188-.098 2.191-.093 2.188-.094 2.191-.09 2.188-.094 2.191-.09 4.375-.18 2.192-.085"/><path fill="none" stroke="#000" stroke-miterlimit="3.25" stroke-width=".5" d="M15.512-13.828v-2.707M26.457-13.828v-1.621M37.406-13.828v-1.621M48.352-13.828v-1.621M59.297-13.828v-2.707"/><path d="M58.791-3.435v.756H54.55c-.012-.19.025-.373.093-.548.104-.294.282-.574.522-.853.235-.285.583-.6 1.028-.964.69-.579 1.161-1.027 1.41-1.359.244-.337.372-.647.372-.946a1.04 1.04 0 0 0-.336-.785c-.226-.215-.515-.32-.875-.32-.384-.001-.684.115-.912.344-.228.226-.343.546-.346.95l-.817-.099c.05-.602.265-1.062.629-1.378.361-.316.851-.474 1.464-.474.615-.002 1.108.17 1.468.512.354.334.541.764.541 1.268 0 .254-.053.508-.159.756a2.96 2.96 0 0 1-.527.783c-.25.271-.65.649-1.213 1.126-.473.391-.777.664-.911.805a2.217 2.217 0 0 0-.334.426h3.144Zm.882-2.408c-.006-.761.079-1.366.235-1.83.153-.467.39-.82.7-1.067.304-.253.697-.37 1.166-.37.34-.003.65.068.915.207.26.133.48.337.646.597.167.256.298.578.395.952.092.372.145.877.145 1.511 0 .746-.078 1.358-.233 1.823-.158.458-.388.82-.697 1.068-.312.246-.7.373-1.171.373-.628-.007-1.11-.218-1.463-.653-.43-.542-.638-1.41-.638-2.61Zm.817-.002c-.005 1.048.123 1.75.37 2.094.245.34.552.515.914.515.356-.001.667-.173.914-.517.243-.347.37-1.042.37-2.092 0-1.054-.122-1.746-.367-2.09-.25-.347-.554-.518-.926-.518-.366-.002-.653.152-.873.456-.274.388-.402 1.106-.402 2.152Z"/><path fill="none" stroke="#000" stroke-miterlimit="3.25" stroke-width="4.5" d="M70.242-13.828v-1.621M81.188-13.828v-1.621M92.137-13.828v-1.621M103.082-13.828v-2.707"/><path d="M100.982-2.679v-1.533h-2.807v-.717l2.987-4.162h.617v4.162h.876v.717h-.876v1.533h-.797Zm0-2.25v-2.86l-2.028 2.86h2.028Zm2.476-.914c-.007-.761.078-1.366.235-1.83.152-.467.389-.82.698-1.067.305-.253.698-.37 1.167-.37.34-.003.65.068.915.207.26.133.48.337.646.597.167.256.298.578.395.952.092.372.145.877.145 1.511 0 .746-.078 1.358-.233 1.823-.158.458-.387.82-.697 1.068-.312.246-.7.373-1.17.373-.629-.007-1.11-.218-1.464-.653-.43-.542-.637-1.41-.637-2.61Zm.816-.002c-.005 1.048.123 1.75.37 2.094.245.34.552.515.914.515.356-.001.667-.173.914-.517.243-.347.37-1.042.37-2.092 0-1.054-.122-1.746-.367-2.09-.25-.347-.554-.518-.926-.518-.365-.002-.653.152-.872.456-.275.388-.403 1.106-.403 2.152Z"/><path fill="none" stroke="#000" stroke-miterlimit="3.25" stroke-width="4.5" d="M114.027-13.828v-1.621M124.973-13.828v-1.621M135.918-13.828v-1.621M146.863-13.828v-2.707"/><path d="m146.34-7.517-.817.06c-.07-.306-.166-.527-.292-.665a1.008 1.008 0 0 0-.773-.331 1.077 1.077 0 0 0-.659.207c-.237.175-.426.44-.566.783-.145.338-.213.835-.219 1.476a1.808 1.808 0 0 1 1.545-.853c.521-.007.965.192 1.33.578.363.38.55.884.55 1.495 0 .398-.087.775-.26 1.12-.181.341-.413.61-.717.793a1.979 1.979 0 0 1-1.034.275c-.66-.007-1.194-.24-1.608-.722-.415-.488-.623-1.275-.623-2.38-.006-1.242.23-2.135.691-2.696.399-.49.942-.734 1.622-.734.504-.002.923.142 1.247.424.318.278.518.672.582 1.17Zm-3.246 2.751c-.005.265.057.528.173.774.113.244.275.433.479.562.202.126.423.194.658.194.338-.001.628-.133.864-.4.233-.268.354-.629.354-1.086 0-.446-.116-.788-.35-1.041-.237-.259-.533-.38-.899-.38a1.196 1.196 0 0 0-.907.38c-.25.248-.372.586-.372.997Zm4.147-1.077c-.006-.761.079-1.366.235-1.83.153-.467.39-.82.7-1.067.304-.253.697-.37 1.166-.37.34-.003.65.068.915.207.26.133.48.337.646.597.167.256.298.578.395.952.092.372.145.877.145 1.511 0 .746-.078 1.358-.233 1.823-.158.458-.388.82-.697 1.068-.312.246-.7.373-1.171.373-.628-.007-1.109-.218-1.463-.653-.43-.542-.638-1.41-.638-2.61Zm.817-.002c-.005 1.048.123 1.75.37 2.094.245.34.552.515.914.515.356-.001.667-.173.914-.517.243-.347.37-1.042.37-2.092 0-1.054-.122-1.746-.367-2.09-.25-.347-.554-.518-.926-.518-.365-.002-.653.152-.873.456-.274.388-.402 1.106-.402 2.152Z"/><path fill="none" stroke="#000" stroke-miterlimit="3.25" stroke-width="4.5" d="M157.813-13.828v-1.621M168.758-13.828v-1.621M179.703-13.828v-1.621M190.648-13.828v-2.707"/><path d="M187.233-6.163c-.334-.124-.575-.289-.734-.51-.165-.222-.239-.484-.239-.792a1.519 1.519 0 0 1 .503-1.17c.335-.318.781-.476 1.338-.476.554-.002 1.01.162 1.351.486.338.319.512.718.512 1.182 0 .29-.079.554-.236.773-.158.216-.395.388-.715.507.391.123.695.335.901.62.202.28.309.627.309 1.023 0 .542-.194 1.008-.581 1.382-.394.372-.898.559-1.53.559-.635-.007-1.142-.187-1.53-.562-.393-.38-.58-.841-.58-1.4-.007-.423.106-.766.32-1.047.207-.285.516-.473.91-.575Zm-.156-1.32a.987.987 0 0 0 .285.735c.184.187.443.286.759.286.3-.006.555-.095.744-.284a.955.955 0 0 0 .283-.694.977.977 0 0 0-.292-.721c-.2-.2-.443-.292-.744-.292a1.005 1.005 0 0 0-.746.286.916.916 0 0 0-.29.683Zm-.259 2.94c-.005.218.051.44.153.649.1.207.259.37.47.486.206.111.438.172.678.172.374-.001.689-.12.928-.362.238-.241.36-.548.36-.92-.002-.378-.124-.69-.37-.936-.252-.249-.562-.371-.944-.371a1.205 1.205 0 0 0-.918.366c-.242.244-.357.55-.357.915Zm4.207-1.3c-.006-.761.079-1.366.235-1.83.153-.467.39-.82.7-1.067.304-.253.697-.37 1.166-.37.34-.003.65.068.915.207.26.133.48.337.646.597.167.256.298.578.395.952.092.372.145.877.145 1.511 0 .746-.078 1.358-.233 1.823-.158.458-.388.82-.697 1.068-.312.246-.7.373-1.17.373-.629-.007-1.11-.218-1.464-.653-.43-.542-.638-1.41-.638-2.61Zm.817-.002c-.005 1.048.123 1.75.37 2.094.245.34.552.515.914.515.356-.001.667-.173.914-.517.243-.347.37-1.042.37-2.092 0-1.054-.122-1.746-.367-2.09-.25-.347-.554-.518-.926-.518-.365-.002-.653.152-.872.456-.275.388-.403 1.106-.403 2.152Z"/><path fill="none" stroke="#000" stroke-miterlimit="3.25" stroke-width="4.5" d="M201.594-13.828v-1.621M212.543-13.828v-1.621M223.488-13.828v-1.621M234.434-13.828v-2.707"/><path d="M230.25-2.679h-.797V-7.69c-.19.178-.432.362-.736.543a5.698 5.698 0 0 1-.817.406v-.76c.43-.213.817-.458 1.143-.752.32-.296.557-.58.693-.857h.513v6.432Zm2.056-3.164c-.006-.761.079-1.366.235-1.83.153-.467.39-.82.7-1.067.304-.253.697-.37 1.166-.37.34-.003.65.068.915.207.26.133.48.337.646.597.167.256.298.578.395.952.092.372.145.877.145 1.511 0 .746-.078 1.358-.233 1.823-.158.458-.388.82-.697 1.068-.312.246-.7.373-1.17.373-.629-.007-1.11-.218-1.464-.653-.43-.542-.638-1.41-.638-2.61Zm.817-.002c-.005 1.048.123 1.75.37 2.094.245.34.552.515.914.515.356-.001.667-.173.914-.517.243-.347.37-1.042.37-2.092 0-1.054-.122-1.746-.367-2.09-.25-.347-.554-.518-.926-.518-.365-.002-.653.152-.872.456-.275.388-.403 1.106-.403 2.152Zm4.187.002c-.006-.761.079-1.366.235-1.83.153-.467.39-.82.7-1.067.304-.253.697-.37 1.166-.37.34-.003.65.068.915.207.26.133.48.337.646.597.167.256.298.578.395.952.092.372.145.877.145 1.511 0 .746-.078 1.358-.233 1.823-.158.458-.388.82-.697 1.068-.312.246-.7.373-1.171.373-.628-.007-1.109-.218-1.463-.653-.43-.542-.638-1.41-.638-2.61Zm.817-.002c-.005 1.048.123 1.75.37 2.094.245.34.552.515.914.515.356-.001.667-.173.914-.517.243-.347.37-1.042.37-2.092 0-1.054-.122-1.746-.367-2.09-.25-.347-.554-.518-.926-.518-.365-.002-.653.152-.872.456-.275.388-.403 1.106-.403 2.152Z"/><path fill="none" stroke="#000" stroke-miterlimit="3.25" stroke-width="4.5" d="M10.953-13.828h228.039"/><path d="m247.273-10.288.805.08c-.007.17.016.309.064.397a.496.496 0 0 0 .231.206c.134.062.321.094.544.094.467-.005.805-.124 1.01-.37.13-.167.26-.524.373-1.078l.079-.376c-.41.416-.844.629-1.304.629-.467 0-.857-.173-1.171-.52-.318-.346-.472-.836-.472-1.47a2.814 2.814 0 0 1 .37-1.441c.245-.442.542-.77.884-.993a1.85 1.85 0 0 1 1.054-.335c.602 0 1.07.28 1.397.839l.168-.74h.715l-.944 4.496c-.1.486-.232.874-.396 1.15-.165.272-.39.487-.681.639-.293.15-.627.227-1.009.227-.372-.004-.683-.048-.948-.144-.268-.099-.463-.236-.594-.42a1.043 1.043 0 0 1-.195-.635c-.006-.077.006-.15.02-.235Zm.956-2.492c-.005.318.03.56.092.722.085.223.212.398.374.517a.904.904 0 0 0 .542.178c.258-.001.518-.091.775-.272.25-.186.465-.463.624-.844.159-.383.239-.744.239-1.09 0-.396-.106-.701-.318-.932a1.02 1.02 0 0 0-.786-.347 1.04 1.04 0 0 0-.561.156c-.186.1-.35.263-.506.476-.16.21-.275.467-.355.763a2.56 2.56 0 0 0-.12.673Z"/><path fill="none" stroke="#000" stroke-miterlimit="3.25" stroke-width="4.5" d="M15.512-13.828h2.707M15.512-17.969h1.625M15.512-22.11h1.625M15.512-26.254h1.625M15.512-30.395h1.625M15.512-34.54h2.707"/><path d="M.378-34.583c-.006-.761.079-1.366.235-1.83.153-.467.39-.82.7-1.067.304-.253.697-.37 1.166-.37.34-.003.65.068.915.207.26.133.48.337.646.597.167.256.298.578.395.952.092.372.145.877.145 1.511 0 .745-.078 1.358-.233 1.823-.158.458-.388.82-.697 1.068-.312.246-.7.373-1.17.373-.629-.007-1.11-.218-1.464-.653-.43-.542-.638-1.41-.638-2.61Zm.817-.002c-.005 1.048.123 1.75.37 2.094.245.34.552.515.914.515.356-.001.667-.173.914-.517.243-.347.37-1.042.37-2.092 0-1.054-.122-1.746-.367-2.091-.25-.346-.554-.517-.926-.517-.365-.002-.653.152-.873.456-.274.388-.402 1.106-.402 2.152ZM5.8-31.419v-.896h.895v.896h-.895Zm2.074-1.692.817-.06c.056.394.203.695.424.895.215.199.494.3.818.3.386-.001.718-.143.977-.427.255-.29.39-.663.39-1.133-.002-.449-.125-.8-.373-1.06-.252-.259-.583-.387-1.003-.387a1.325 1.325 0 0 0-.695.172 1.29 1.29 0 0 0-.479.445l-.736-.1.617-3.285h3.186v.757H9.26l-.344 1.717c.384-.27.787-.403 1.21-.403a1.895 1.895 0 0 1 1.413.582c.383.387.577.886.577 1.496-.007.574-.17 1.081-.507 1.504-.414.52-.97.779-1.68.779-.586-.007-1.056-.164-1.424-.491-.371-.33-.578-.761-.63-1.301Z"/><path fill="none" stroke="#000" stroke-miterlimit="3.25" stroke-width="4.5" d="M15.512-38.68h1.625M15.512-42.824h1.625M15.512-46.965h1.625M15.512-51.11h1.625M15.512-55.25h2.707"/><path d="M3.325-52.132H2.53v-5.012c-.19.178-.432.362-.736.543a5.696 5.696 0 0 1-.817.406v-.76c.43-.213.817-.458 1.143-.752.32-.296.557-.58.693-.856h.513v6.431Zm2.476 0v-.896h.895v.896h-.895Zm2.074-3.164c-.006-.761.079-1.366.235-1.83.153-.466.39-.82.7-1.067.304-.253.697-.37 1.166-.37.34-.003.65.069.915.207.26.133.48.337.646.598.167.255.298.577.395.95.092.373.145.878.145 1.512 0 .746-.078 1.358-.233 1.823-.158.458-.388.82-.697 1.069-.312.246-.7.372-1.17.372-.629-.006-1.11-.218-1.464-.653-.43-.541-.638-1.41-.638-2.61Zm.817-.002c-.005 1.048.123 1.751.37 2.094.245.34.552.515.914.515.356 0 .667-.172.914-.517.243-.346.37-1.042.37-2.092 0-1.054-.122-1.746-.367-2.09-.25-.347-.554-.518-.926-.518-.366-.002-.653.152-.873.456-.274.388-.402 1.106-.402 2.152Z"/><path fill="none" stroke="#000" stroke-miterlimit="3.25" stroke-width="4.5" d="M15.512-59.395h1.625M15.512-63.535h1.625M15.512-67.68h1.625M15.512-71.82h1.625M15.512-75.965h2.707"/><path d="M3.325-72.844H2.53v-5.012c-.19.178-.432.361-.736.542a5.697 5.697 0 0 1-.817.406v-.76c.43-.212.817-.457 1.143-.752.32-.296.557-.58.693-.856h.513v6.432Zm2.476 0v-.896h.895v.896h-.895Zm2.074-1.693.817-.06c.056.394.203.695.424.895.215.2.494.3.818.3.386 0 .718-.142.977-.427.255-.29.39-.662.39-1.133-.002-.448-.125-.8-.373-1.059-.252-.26-.583-.388-1.003-.388a1.325 1.325 0 0 0-.695.172 1.29 1.29 0 0 0-.479.445l-.736-.099.617-3.286h3.186v.757H9.26l-.344 1.717c.384-.269.787-.403 1.21-.403a1.895 1.895 0 0 1 1.413.582c.383.388.577.886.577 1.496-.007.575-.17 1.082-.507 1.505-.414.518-.97.778-1.68.778-.586-.006-1.056-.163-1.424-.49-.371-.33-.578-.762-.63-1.302Z"/><path fill="none" stroke="#000" stroke-miterlimit="3.25" stroke-width="4.5" d="M15.512-80.106h1.625M15.512-84.25h1.625M15.512-88.39h1.625M15.512-92.535h1.625M15.512-96.676h2.707"/><path d="M4.5-94.314v.757H.26c-.012-.19.025-.373.093-.549.104-.293.283-.573.522-.852.235-.286.583-.6 1.028-.965.69-.578 1.161-1.026 1.41-1.358.244-.337.372-.648.372-.947a1.04 1.04 0 0 0-.336-.784c-.226-.215-.515-.32-.875-.32-.384-.002-.684.115-.912.344-.228.225-.343.545-.346.95l-.817-.1c.05-.602.265-1.061.629-1.377.361-.317.851-.474 1.464-.474.615-.003 1.108.17 1.468.511.355.335.541.764.541 1.268 0 .254-.053.509-.159.757a2.96 2.96 0 0 1-.527.782c-.25.272-.65.65-1.213 1.127-.473.391-.777.664-.911.805a2.218 2.218 0 0 0-.334.425H4.5Zm1.3.757v-.896h.896v.896h-.895Zm2.075-3.164c-.006-.762.079-1.367.235-1.83.153-.467.39-.82.7-1.068.304-.253.697-.37 1.166-.37.34-.003.65.069.915.207.26.133.48.338.646.598.167.256.298.577.395.951.092.372.145.878.145 1.512 0 .745-.078 1.358-.233 1.822-.158.458-.388.82-.697 1.069-.312.246-.7.372-1.17.372-.629-.006-1.11-.217-1.464-.653-.43-.541-.638-1.409-.638-2.61Zm.817-.002c-.005 1.048.123 1.75.37 2.094.245.34.552.514.914.514.356 0 .667-.172.914-.517.243-.346.37-1.041.37-2.091 0-1.054-.122-1.747-.367-2.091-.25-.346-.554-.518-.926-.518-.366-.002-.653.152-.873.457-.274.387-.402 1.105-.402 2.152Z"/><path fill="none" stroke="#000" stroke-miterlimit="3.25" stroke-width="4.5" d="M15.512-100.82h1.625M15.512-104.961h1.625M15.512-109.105h1.625M15.512-113.246h1.625M15.512-117.391h2.707"/><path d="M4.5-115.027v.757H.26c-.012-.19.025-.373.093-.548.104-.294.283-.574.522-.853.235-.286.583-.6 1.028-.964.69-.58 1.161-1.027 1.41-1.36.244-.336.372-.646.372-.945a1.04 1.04 0 0 0-.336-.785c-.226-.215-.515-.32-.875-.32-.384-.001-.684.115-.912.344-.228.226-.343.546-.346.95l-.817-.099c.05-.603.265-1.062.629-1.378.361-.317.851-.474 1.464-.474.615-.003 1.108.17 1.468.512.355.334.541.763.541 1.268 0 .253-.053.508-.159.756a2.96 2.96 0 0 1-.527.782c-.25.272-.65.65-1.213 1.127-.473.391-.777.664-.911.805a2.218 2.218 0 0 0-.334.425H4.5Zm1.3.757v-.896h.896v.896h-.895Zm2.075-1.692.817-.06c.056.394.203.695.424.895.215.199.494.3.818.3.386-.001.718-.143.977-.427.255-.29.39-.663.39-1.133-.002-.449-.125-.801-.373-1.06-.252-.26-.583-.387-1.003-.387a1.325 1.325 0 0 0-.695.172 1.29 1.29 0 0 0-.479.445l-.736-.1.617-3.285h3.186v.756H9.26l-.344 1.718c.384-.27.787-.403 1.21-.403a1.895 1.895 0 0 1 1.413.581c.383.388.577.887.577 1.497-.007.574-.17 1.081-.507 1.504-.414.519-.97.779-1.68.779-.586-.007-1.056-.164-1.424-.491-.371-.33-.578-.761-.63-1.301Z"/><path fill="none" stroke="#000" stroke-miterlimit="3.25" stroke-width="4.5" d="M15.512-121.531h1.625M15.512-125.676h1.625M15.512-129.816h1.625M15.512-133.961h1.625M15.512-138.102h2.707"/><path d="m.378-136.676.817-.1c.085.435.242.753.455.946.21.189.479.29.797.29.373-.001.689-.128.94-.384.249-.262.376-.573.376-.95 0-.364-.117-.658-.353-.892-.239-.24-.535-.351-.898-.351a2.128 2.128 0 0 0-.554.087l.087-.696c.05 0 .094.008.125.008.319-.002.611-.086.869-.258.251-.175.386-.438.386-.796a.943.943 0 0 0-.288-.706c-.198-.188-.44-.28-.744-.28a1.03 1.03 0 0 0-.752.289c-.2.188-.33.481-.387.866l-.816-.14c.09-.53.315-.942.656-1.234.336-.294.765-.438 1.272-.438a2.08 2.08 0 0 1 .966.224c.29.145.52.352.676.61.153.257.234.531.234.82-.001.275-.075.526-.224.752a1.59 1.59 0 0 1-.66.538c.373.084.677.27.895.545.214.27.327.62.327 1.035 0 .556-.204 1.034-.613 1.424-.41.384-.925.584-1.55.584-.568-.007-1.03-.167-1.402-.5-.377-.332-.584-.763-.637-1.293Zm5.423 1.693v-.896h.895v.896h-.895Zm2.074-3.164c-.006-.762.079-1.367.235-1.83.153-.467.39-.82.7-1.068.304-.253.697-.37 1.166-.37.34-.003.65.07.915.207.26.133.48.338.646.598.167.256.298.577.395.951.092.373.145.878.145 1.512 0 .745-.078 1.358-.233 1.822-.158.458-.388.82-.697 1.07-.312.245-.7.372-1.17.372-.629-.007-1.11-.218-1.464-.653-.43-.542-.638-1.41-.638-2.611Zm.817-.002c-.005 1.048.123 1.75.37 2.094.245.34.552.514.914.514.356 0 .667-.172.914-.516.243-.347.37-1.042.37-2.092 0-1.054-.122-1.746-.367-2.091-.25-.346-.554-.518-.926-.518-.366-.001-.653.152-.873.457-.274.388-.402 1.105-.402 2.152Z"/><path fill="none" stroke="#000" stroke-miterlimit="3.25" stroke-width="4.5" d="M15.512-142.246h1.625M15.512-146.387h1.625M15.512-150.531h1.625M15.512-11.008v-140.937"/><path d="m7.39-159.853 1.334-6.412h4.66l-.14.717H9.427l-.423 2.031h3.741l-.16.717h-3.73l-.464 2.23h4.058l-.153.717H7.39ZM15.664-157.971h-.565a7.442 7.442 0 0 1-.636-.944 6.98 6.98 0 0 1-.81-2.124 5.58 5.58 0 0 1-.111-1.133 5.273 5.273 0 0 1 .113-1.14 6.3 6.3 0 0 1 .32-1.087c.133-.358.3-.695.492-1.026.19-.334.402-.648.632-.951h.565c-.207.332-.393.671-.556 1-.165.322-.3.661-.411 1.001-.115.334-.196.69-.254 1.05a6.456 6.456 0 0 0-.088 1.145c-.004.369.032.743.094 1.11.061.367.151.73.265 1.084.11.352.251.7.412 1.036.16.336.34.663.538.979ZM16.278-159.435l.806.08c-.008.17.015.309.064.397a.496.496 0 0 0 .23.206c.134.062.322.094.545.094.467-.005.805-.124 1.01-.37.13-.167.259-.524.373-1.078l.079-.376c-.411.416-.844.629-1.305.629-.466 0-.856-.173-1.17-.519-.318-.347-.472-.836-.472-1.47a2.814 2.814 0 0 1 .37-1.442c.245-.441.542-.77.883-.993a1.85 1.85 0 0 1 1.054-.335c.603 0 1.07.28 1.397.839l.169-.74h.714l-.943 4.496c-.101.486-.233.874-.396 1.15-.166.273-.39.487-.682.639-.292.15-.627.227-1.008.227-.373-.004-.683-.048-.948-.144-.268-.098-.463-.236-.594-.42a1.044 1.044 0 0 1-.196-.635c-.006-.077.007-.15.02-.235Zm.956-2.492c-.005.318.03.56.092.722.086.223.213.398.375.517a.904.904 0 0 0 .541.178c.259-.001.518-.09.775-.272.251-.186.465-.463.624-.844.16-.383.24-.744.24-1.09 0-.396-.106-.7-.318-.932a1.02 1.02 0 0 0-.787-.347 1.04 1.04 0 0 0-.56.156c-.187.1-.35.263-.507.476-.16.21-.274.467-.354.763a2.56 2.56 0 0 0-.12.673ZM23.45-162.172a5.83 5.83 0 0 1-.114 1.136c-.08.366-.183.734-.32 1.087a8.06 8.06 0 0 1-.492 1.026 9.471 9.471 0 0 1-.632.952h-.565c.203-.333.388-.664.551-.994.159-.332.3-.665.412-1.006.109-.342.196-.693.256-1.054.059-.365.09-.742.09-1.138a7.01 7.01 0 0 0-.095-1.112 8.533 8.533 0 0 0-.264-1.082 8.61 8.61 0 0 0-.414-1.04c-.168-.343-.34-.664-.536-.98h.565c.23.292.446.612.639.943a6.908 6.908 0 0 1 .807 2.131c.07.372.111.752.111 1.131ZM164.379-120.285v-.916h8.96v.916h-8.96ZM181.263-118.413l1.335-6.412h4.66l-.14.717h-3.816l-.423 2.03h3.741l-.16.718h-3.73l-.464 2.23h4.058l-.154.717h-4.907ZM189.537-116.531h-.564a7.442 7.442 0 0 1-.637-.944 6.981 6.981 0 0 1-.81-2.124 5.58 5.58 0 0 1-.11-1.133 5.273 5.273 0 0 1 .113-1.14 6.3 6.3 0 0 1 .32-1.087c.132-.358.3-.695.491-1.026.19-.334.402-.648.633-.951h.564a12.03 12.03 0 0 0-.555 1c-.165.322-.3.661-.412 1.001-.115.334-.195.69-.254 1.05a6.456 6.456 0 0 0-.087 1.144c-.004.37.031.744.094 1.112.06.366.15.728.265 1.083.11.352.25.7.411 1.036.16.336.34.663.538.979ZM190.152-117.995l.805.08c-.007.17.015.309.064.397a.496.496 0 0 0 .231.206c.134.062.321.094.544.094.467-.005.805-.124 1.01-.37.13-.167.259-.524.373-1.078l.079-.376c-.41.416-.844.629-1.304.629-.467 0-.857-.173-1.171-.52-.318-.346-.472-.835-.472-1.47a2.814 2.814 0 0 1 .37-1.441c.245-.442.542-.77.884-.993a1.85 1.85 0 0 1 1.054-.335c.602 0 1.07.28 1.396.839l.17-.74h.714l-.944 4.496c-.101.486-.232.874-.396 1.15-.165.272-.39.487-.681.639-.293.15-.627.227-1.009.227-.372-.004-.683-.048-.948-.144-.268-.099-.463-.236-.594-.42a1.044 1.044 0 0 1-.195-.635c-.007-.077.006-.15.02-.235Zm.956-2.492c-.005.318.03.56.092.722.085.223.212.398.374.517a.904.904 0 0 0 .541.178c.26-.001.519-.09.775-.272.252-.186.466-.463.625-.844.159-.383.239-.744.239-1.09 0-.396-.106-.7-.318-.932a1.02 1.02 0 0 0-.786-.347 1.04 1.04 0 0 0-.561.156c-.187.1-.35.263-.506.476-.16.21-.275.467-.355.763a2.56 2.56 0 0 0-.12.673ZM197.323-120.732a5.83 5.83 0 0 1-.114 1.136c-.08.366-.182.734-.32 1.087a8.06 8.06 0 0 1-.491 1.026 9.47 9.47 0 0 1-.633.952h-.564c.203-.334.388-.664.551-.994.158-.332.3-.665.411-1.006a7.08 7.08 0 0 0 .346-2.192 7.01 7.01 0 0 0-.094-1.112 8.534 8.534 0 0 0-.265-1.082c-.118-.36-.251-.701-.413-1.04-.169-.343-.34-.664-.536-.98h.564c.23.292.447.612.64.943a6.908 6.908 0 0 1 .806 2.131c.07.372.112.752.112 1.131ZM203.035-116.531h-.564a7.44 7.44 0 0 1-.637-.944 6.982 6.982 0 0 1-.81-2.124 5.581 5.581 0 0 1-.11-1.133 5.272 5.272 0 0 1 .113-1.14 6.3 6.3 0 0 1 .32-1.087c.133-.358.3-.695.492-1.026.19-.334.401-.648.632-.951h.564a12.03 12.03 0 0 0-.555 1c-.165.322-.3.661-.411 1.001-.116.334-.196.69-.255 1.05a6.456 6.456 0 0 0-.087 1.144c-.004.37.031.744.094 1.112.06.366.151.728.265 1.083.11.352.25.7.411 1.036.16.336.34.663.538.979ZM207.165-119.906l.8.1c-.134.47-.368.84-.716 1.1-.355.26-.794.393-1.336.393-.683-.007-1.224-.21-1.624-.628-.405-.423-.6-1.007-.6-1.762-.005-.786.203-1.39.607-1.821.403-.435.928-.648 1.573-.648.618 0 1.133.211 1.529.634.393.418.593 1.017.593 1.784-.007.04-.002.117-.005.21h-3.48c.024.506.175.898.438 1.168.258.265.59.405.982.405.287 0 .542-.074.748-.223.206-.155.37-.386.491-.712Zm-2.639-1.295h2.648c-.037-.389-.137-.674-.303-.866a1.254 1.254 0 0 0-.996-.448c-.37-.006-.68.12-.932.358-.255.233-.39.557-.417.956Zm3.909 2.788 1.676-2.39-1.577-2.27h.965l.75 1.114c.125.206.233.382.31.516.14-.205.264-.378.37-.529l.771-1.1h.969l-1.592 2.27 1.659 2.389h-.965l-.937-1.42-.217-.312-1.214 1.732h-.968Zm8.084-.578c-.284.247-.56.423-.835.525a2.57 2.57 0 0 1-.88.153c-.52-.007-.915-.125-1.193-.373a1.21 1.21 0 0 1-.417-.955 1.18 1.18 0 0 1 .157-.621c.1-.192.243-.339.413-.452.167-.12.362-.2.575-.257.156-.042.394-.08.71-.118.641-.077 1.121-.166 1.426-.271l.004-.206c-.001-.325-.075-.55-.225-.681-.209-.18-.504-.268-.903-.268-.379-.006-.65.064-.827.193-.18.125-.31.356-.395.683l-.796-.1c.064-.334.186-.596.348-.8.16-.208.395-.36.7-.469a3.09 3.09 0 0 1 1.063-.164c.397 0 .725.047.974.14.25.094.434.212.551.354.113.137.2.32.247.537.026.13.04.377.04.726v1.05c0 .729.016 1.195.048 1.39.03.19.096.383.19.562h-.816a1.649 1.649 0 0 1-.159-.578Zm-.04-1.752c-.294.113-.731.215-1.316.297-.334.044-.566.098-.703.156a.681.681 0 0 0-.318.255.626.626 0 0 0-.112.373.65.65 0 0 0 .243.522c.157.135.4.21.713.21.306-.002.586-.067.827-.2a1.28 1.28 0 0 0 .532-.543c.083-.177.13-.438.13-.783l.004-.287Zm5.044.617.777.1c-.085.533-.303.955-.653 1.258-.352.301-.78.455-1.289.455-.644-.007-1.15-.208-1.539-.624-.388-.421-.582-1.012-.582-1.789-.006-.504.084-.94.25-1.317.164-.38.42-.658.761-.847a2.24 2.24 0 0 1 1.112-.282c.506 0 .92.13 1.241.389.321.256.528.627.619 1.104l-.757.1c-.075-.315-.203-.544-.389-.7a1 1 0 0 0-.675-.236 1.215 1.215 0 0 0-.972.425c-.251.282-.373.73-.373 1.343-.005.62.12 1.073.36 1.354.234.282.552.422.938.422.306 0 .569-.094.776-.283.205-.195.34-.48.395-.872Zm3.166 1.005.1.695c-.226.046-.422.073-.597.073-.29-.007-.509-.046-.666-.136a.757.757 0 0 1-.334-.357c-.069-.15-.096-.458-.096-.932v-2.677h-.578v-.618h.578v-1.15l.796-.473v1.623h.797v.618h-.797v2.705c-.004.222.014.367.042.431.023.06.074.115.137.153.059.035.153.056.27.056.087 0 .204-.004.348-.011ZM227.317-120.732a5.83 5.83 0 0 1-.114 1.136c-.08.366-.182.734-.32 1.087a8.06 8.06 0 0 1-.491 1.026 9.47 9.47 0 0 1-.633.952h-.564c.203-.334.388-.664.551-.994.158-.332.3-.665.411-1.006a7.078 7.078 0 0 0 .346-2.192 7.01 7.01 0 0 0-.094-1.112 8.534 8.534 0 0 0-.265-1.082 8.61 8.61 0 0 0-.413-1.04c-.169-.343-.34-.664-.536-.98h.564c.23.292.447.612.64.943a6.908 6.908 0 0 1 .806 2.131c.07.372.112.752.112 1.131Z"/><path fill="#00f" d="M164.379-151.354v-.916h8.96v.916h-8.96ZM181.263-149.482l1.335-6.412h4.66l-.14.717h-3.816l-.423 2.031h3.741l-.16.717h-3.73l-.464 2.23h4.058l-.154.717h-4.907ZM189.343-148.393a2.267 2.267 0 0 1-.568.362c-.185.069-.377.109-.584.109-.31 0-.556-.09-.744-.268a.91.91 0 0 1-.282-.687.877.877 0 0 1 .126-.489.927.927 0 0 1 .335-.341c.138-.09.309-.147.51-.185.127-.028.373-.044.726-.058.347-.019.606-.052.759-.112.036-.155.062-.285.062-.388-.006-.137-.047-.237-.142-.312-.136-.112-.32-.158-.571-.158-.238 0-.429.055-.579.166a.912.912 0 0 0-.327.474l-.56-.06c.11-.33.3-.582.55-.757.248-.177.568-.263.95-.263.4 0 .729.098.966.292a.69.69 0 0 1 .273.567c-.006.176-.026.38-.076.612l-.179.821a3.035 3.035 0 0 0-.085.638c-.006.1.022.253.067.448h-.564a2.159 2.159 0 0 1-.063-.41Zm.199-1.28c-.083.028-.16.055-.249.071a5.632 5.632 0 0 1-.464.053 3.184 3.184 0 0 0-.692.11.568.568 0 0 0-.309.213.526.526 0 0 0-.104.324.493.493 0 0 0 .166.388c.108.099.267.152.47.152a1.108 1.108 0 0 0 .953-.559c.095-.177.174-.427.229-.753ZM193.807-150.068h-3.02v-.523h3.02v.523Zm0 1.389h-3.02v-.523h3.02v.523ZM197.356-148.542v.56h-3.018a1.058 1.058 0 0 1 .064-.4 2.07 2.07 0 0 1 .36-.62 4.99 4.99 0 0 1 .728-.692c.493-.414.84-.735 1.026-.97.18-.241.28-.46.28-.673a.748.748 0 0 0-.244-.556c-.168-.154-.376-.226-.638-.226-.282-.001-.498.083-.664.249-.17.162-.25.396-.253.69l-.56-.08c.034-.43.19-.756.448-.981.256-.226.606-.338 1.041-.338.438-.001.789.121 1.045.364.252.24.385.542.385.9-.006.18-.038.362-.113.538-.077.174-.2.361-.376.556-.178.194-.462.462-.861.802-.34.281-.555.474-.656.574a1.49 1.49 0 0 0-.249.303h2.255ZM199.48-152.546l-1.32 4.717h-.451l1.32-4.717h.451ZM199.758-149.181l.56-.08c.057.318.17.548.32.689.15.137.339.21.566.21.266 0 .49-.091.667-.274a.96.96 0 0 0 .265-.679c-.006-.26-.083-.47-.25-.637a.852.852 0 0 0-.636-.25 1.32 1.32 0 0 0-.392.061l.062-.5a1.171 1.171 0 0 0 .732-.182c.185-.124.284-.318.284-.579a.71.71 0 0 0-.21-.514.74.74 0 0 0-.54-.203.773.773 0 0 0-.547.2c-.147.132-.24.333-.282.6l-.56-.08c.062-.376.224-.666.466-.871.24-.21.543-.31.903-.31.245 0 .476.055.685.162.204.106.368.254.479.44.107.184.166.383.166.591a1.036 1.036 0 0 1-.159.542 1.167 1.167 0 0 1-.47.388c.267.06.482.192.637.388.152.192.232.442.232.737a1.378 1.378 0 0 1-.435 1.014c-.29.276-.655.416-1.098.416-.4 0-.73-.119-.994-.356a1.363 1.363 0 0 1-.451-.923Zm3.832 1.199v-.64h.64v.64c-.007.228-.043.413-.13.553a.872.872 0 0 1-.41.326l-.14-.22a.603.603 0 0 0 .264-.227.987.987 0 0 0 .094-.432h-.318ZM205.019-147.982l.96-4.577h.57l-.344 1.637c.17-.167.328-.273.468-.339a1 1 0 0 1 .439-.099c.294 0 .547.115.746.344.193.227.299.563.299 1-.006.29-.04.558-.12.8-.087.24-.18.444-.299.608a2.25 2.25 0 0 1-.367.394c-.13.095-.256.17-.389.22-.133.045-.26.072-.382.072a.955.955 0 0 1-.557-.167 1.093 1.093 0 0 1-.377-.508l-.137.615h-.51Zm.832-1.35-.003.105c-.003.277.065.497.195.644.128.141.292.221.486.221.187 0 .364-.07.523-.208.155-.143.29-.356.392-.65.1-.296.153-.567.153-.816-.006-.282-.064-.497-.192-.652a.582.582 0 0 0-.474-.232c-.199 0-.373.08-.536.239-.168.159-.298.404-.407.735a1.728 1.728 0 0 0-.137.613ZM211.72-150.068h-3.02v-.523h3.02v.523Zm0 1.389h-3.02v-.523h3.02v.523ZM214.43-147.982h-.56v-3.582c-.14.123-.31.258-.53.387a4.08 4.08 0 0 1-.588.29v-.543a3.64 3.64 0 0 0 .82-.537c.234-.215.4-.414.498-.612h.36v4.597Z"/><path fill="red" d="M164.379-87.144v-.916h8.96v.916h-8.96ZM181.263-85.272l1.335-6.412h4.66l-.14.717h-3.816l-.423 2.03h3.741l-.16.718h-3.73l-.464 2.23h4.058l-.154.717h-4.907ZM187.345-83.772v-4.577h1.708c.345-.001.627.046.837.138.208.092.375.235.494.428.113.189.178.393.178.603-.005.191-.053.38-.16.552a1.184 1.184 0 0 1-.482.417c.272.081.49.22.639.416.144.19.223.428.223.694-.005.211-.045.415-.135.6-.09.18-.2.326-.334.426a1.527 1.527 0 0 1-.498.226c-.203.05-.444.077-.734.077h-1.736Zm.6-2.659h.982c.266 0 .458-.017.574-.052a.675.675 0 0 0 .346-.228.66.66 0 0 0 .116-.398.787.787 0 0 0-.109-.4.555.555 0 0 0-.31-.237c-.14-.044-.365-.064-.691-.064h-.909v1.38Zm0 2.12h1.147c.195 0 .335-.008.415-.023.14-.031.258-.067.352-.125a.737.737 0 0 0 .233-.255.84.84 0 0 0 .09-.387.74.74 0 0 0-.521-.713c-.16-.057-.376-.077-.665-.077h-1.052v1.58Zm3.415-1.12c0-.61.168-1.06.504-1.354.28-.246.623-.365 1.027-.365.445 0 .815.148 1.1.444.281.294.427.706.427 1.228-.006.419-.063.757-.189 1-.129.238-.31.43-.55.565a1.68 1.68 0 0 1-.788.2c-.46 0-.826-.147-1.108-.442-.283-.3-.423-.72-.423-1.276Zm.56-.002c-.007.415.092.737.276.947.179.207.416.314.695.314a.886.886 0 0 0 .692-.316c.183-.212.276-.531.276-.963-.007-.407-.093-.715-.278-.925a.866.866 0 0 0-.69-.314.88.88 0 0 0-.695.313c-.19.203-.276.523-.276.944Zm3.213 1.66v-3.317h.48v.517c.12-.242.244-.39.352-.465a.572.572 0 0 1 .356-.112c.185 0 .377.056.57.17l-.192.514a.822.822 0 0 0-.396-.104.492.492 0 0 0-.317.11.564.564 0 0 0-.202.306 2.088 2.088 0 0 0-.092.653v1.729h-.56Zm4.38-1.079.586.08c-.098.336-.262.597-.512.782-.252.185-.568.278-.956.278-.492 0-.875-.148-1.161-.445-.29-.3-.43-.711-.43-1.246 0-.557.145-.983.435-1.289.284-.305.664-.458 1.125-.458.44 0 .811.15 1.094.448.279.296.425.72.425 1.262-.006.03-.002.083-.004.149H197.6c.015.361.126.638.315.83a.957.957 0 0 0 .706.29.89.89 0 0 0 .538-.163c.143-.114.266-.28.353-.518Zm-1.893-.899h1.899c-.032-.276-.098-.481-.218-.619a.897.897 0 0 0-.714-.32.93.93 0 0 0-.668.255c-.186.165-.28.399-.299.684Zm3.153 1.979v-4.577h.56v4.577h-.56ZM205.155-85.17h-3.02v-.523h3.02v.523ZM206.026-83.772v-4.577h1.708c.298-.001.53.014.69.043.216.036.408.11.559.215.144.105.27.252.363.442.085.188.137.397.137.625-.005.386-.122.719-.367.988-.249.265-.688.405-1.33.405h-1.16v1.859h-.6Zm.6-2.399h1.18c.39 0 .668-.072.832-.218.16-.147.246-.352.246-.617a.869.869 0 0 0-.145-.492.67.67 0 0 0-.382-.271c-.105-.028-.29-.04-.564-.04h-1.168v1.638Zm5.714 1.98a2.098 2.098 0 0 1-.589.37 1.806 1.806 0 0 1-.611.109c-.366 0-.636-.088-.83-.265a.87.87 0 0 1-.289-.675.835.835 0 0 1 .11-.441c.07-.14.168-.24.286-.32.113-.087.25-.141.399-.183.104-.034.273-.056.492-.083.445-.058.777-.118.989-.192-.003-.077.003-.125.003-.146-.006-.234-.052-.39-.157-.483-.142-.13-.352-.19-.63-.19-.265 0-.453.047-.577.14-.129.093-.216.26-.275.5l-.56-.08a1.28 1.28 0 0 1 .245-.57c.112-.148.278-.255.493-.333.209-.084.464-.117.746-.117.28 0 .51.033.685.1.173.066.305.15.388.25.077.097.14.228.174.381.015.091.028.267.028.514v.741c-.007.514.012.846.036.987.019.135.072.275.143.405h-.56a.98.98 0 0 1-.14-.42Zm-.04-1.24c-.207.082-.502.152-.902.21-.233.028-.388.069-.483.11a.457.457 0 0 0-.218.18.433.433 0 0 0-.076.263.455.455 0 0 0 .167.369c.11.094.274.147.488.147.208 0 .402-.046.567-.14a.866.866 0 0 0 .365-.382c.057-.131.089-.31.089-.554l.003-.203Zm3.592 1.659v-.43a1.05 1.05 0 0 1-.929.49c-.268 0-.508-.072-.73-.217a1.395 1.395 0 0 1-.516-.605 2.084 2.084 0 0 1-.183-.894c0-.33.055-.626.166-.894a1.27 1.27 0 0 1 .496-.614c.22-.148.468-.214.74-.214a1.113 1.113 0 0 1 .916.45v-1.65h.56v4.578h-.52Zm-1.799-1.658c-.006.42.091.737.274.945a.834.834 0 0 0 .646.313c.244 0 .462-.1.637-.299.17-.2.262-.503.262-.912-.006-.453-.089-.78-.267-.991a.817.817 0 0 0-.658-.316.793.793 0 0 0-.638.303c-.175.201-.256.522-.256.957Zm5.465.578.587.08c-.098.336-.263.597-.512.782-.252.185-.568.278-.956.278-.492 0-.875-.148-1.161-.445-.29-.3-.43-.711-.43-1.246 0-.557.145-.983.434-1.289.285-.305.665-.458 1.126-.458.44 0 .811.15 1.094.448.278.296.424.72.424 1.262-.006.03 0 .083-.003.149h-2.515c.015.361.126.638.315.83a.957.957 0 0 0 .706.29.89.89 0 0 0 .538-.163c.142-.114.266-.28.353-.518Zm-1.892-.899h1.899c-.032-.276-.098-.481-.218-.619a.897.897 0 0 0-.714-.32.929.929 0 0 0-.668.255c-.186.165-.28.399-.299.684Zm.52-1.739.4-.88h.739l-.68.88h-.46Z"/></svg>