<svg xmlns="http://www.w3.org/2000/svg" width="336" height="224" viewBox="0 -168 252 168"><rect width="100%" height="100%" y="-168" fill="#fff"/><path fill="none" stroke="#000" stroke-linecap="square" stroke-miterlimit="3.25" stroke-width=".8" d="M15.516-36.46v-.08l.004-.073v-.07l.007-.141v-.063l.004-.066v-.059l.004-.062v-.059l.004-.058.004-.055v-.055l.004-.054v-.055l.004-.05v-.052l.004-.05v-.051l.004-.047.004-.05v-.048l.003-.047v-.047l.004-.043v-.046l.008-.086v-.043l.004-.043v-.043l.004-.04v-.042l.004-.04v-.038l.008-.078v-.04l.004-.039v-.039l.003-.039v-.035l.004-.039v-.035l.008-.07v-.036l.004-.035v-.035l.004-.035v-.035l.004-.035.004-.032v-.035l.004-.031v-.035l.004-.032v-.03l.004-.036v-.031l.007-.063v-.03l.004-.032v-.031l.004-.032v-.027l.004-.031v-.032l.004-.027.004-.031v-.031l.004-.028v-.027l.004-.031v-.028l.004-.027.004-.031v-.028l.003-.027v-.027l.004-.028v-.027l.004-.027v-.028l.008-.054v-.028l.004-.027v-.023l.004-.028v-.027l.004-.023v-.028l.004-.023.004-.028v-.027l.003-.023v-.024l.024-.246.023-.234.02-.223.023-.215.02-.207.023-.2.024-.19.02-.188.023-.18.02-.175.023-.172.023-.164.02-.16.023-.16.02-.153.023-.152.023-.145.02-.145.023-.14.02-.137.023-.136.024-.133.02-.13.023-.128.02-.125.023-.125.023-.121.02-.117.023-.118.02-.117.047-.226.02-.11.023-.11.02-.105.046-.21.02-.106.023-.102.02-.097.023-.102.023-.097.02-.098.023-.094.02-.094.047-.187.02-.09.046-.18.02-.09.023-.085.02-.09.023-.086.023-.082.02-.086.023-.082.02-.082.047-.164.02-.082.023-.078.02-.079.046-.156.02-.078.023-.074.02-.074.047-.149.02-.074.023-.074.02-.075.046-.14.02-.07.023-.07.02-.071.023-.07.023-.067.02-.07.023-.066.02-.067.023-.07.024-.063.02-.066.023-.066.02-.067.023-.062.023-.067 2.188-4.972 2.191-3.458 2.188-2.722 2.187-2.281 2.191-1.977 2.188-1.754 2.191-1.582 2.188-1.445 2.191-1.336 2.188-1.242 2.187-1.164 2.192-1.094 2.187-1.035 2.192-.985 2.187-.937 2.191-.895 2.188-.855 2.191-.824 2.188-.793 2.187-.766 2.192-.738 2.187-.711 2.192-.695 2.187-.668 2.192-.653 2.187-.633 2.188-.617L79-87.566l2.188-.586 2.19-.57 2.188-.56 2.192-.546 2.187-.531 2.192-.524 2.187-.511 2.188-.5 2.191-.493 2.188-.48 2.191-.473 2.188-.465 2.191-.457 2.187-.445 2.188-.441 2.191-.434 2.188-.426 2.191-.418 2.188-.414 2.191-.406 2.188-.402 2.191-.395 2.188-.387 2.187-.382 2.191-.38 2.188-.37 2.191-.372 2.188-.363 2.191-.355 2.188-.356 2.187-.351 2.192-.344 2.187-.34 2.192-.34 2.187-.332 2.192-.328 2.187-.328 2.191-.32 2.188-.321 2.187-.312 2.192-.313 2.187-.308 2.192-.305 2.187-.305 2.192-.297 2.187-.296 2.188-.293 2.191-.293 2.188-.286 2.191-.285 2.187-.285 2.192-.277 2.187-.278 2.192-.277 2.187-.273 2.188-.27 2.191-.265 2.188-.266 2.191-.266 2.188-.258 2.191-.261 2.187-.254 2.188-.258 2.191-.25 2.188-.25 2.191-.25 2.188-.246 2.191-.246 4.375-.485 2.192-.238"/><path fill="none" stroke="#00f" stroke-linecap="square" stroke-miterlimit="3.25" stroke-width=".8" d="M15.516-36.46v-.08l.004-.073v-.07l.007-.141v-.063l.004-.066v-.059l.004-.062v-.059l.004-.058.004-.055v-.055l.004-.054v-.055l.004-.05v-.052l.004-.05v-.051l.004-.047.004-.05v-.048l.003-.047v-.047l.004-.043v-.046l.008-.086v-.043l.004-.043v-.043l.004-.04v-.042l.004-.04v-.038l.008-.078v-.04l.004-.039v-.039l.003-.039v-.035l.004-.039v-.035l.008-.07v-.036l.004-.035v-.035l.004-.035v-.035l.004-.035.004-.032v-.035l.004-.031v-.035l.004-.032v-.03l.004-.036v-.031l.007-.063v-.03l.004-.032v-.031l.004-.032v-.027l.004-.031v-.032l.004-.027.004-.031v-.031l.004-.028v-.027l.004-.031v-.028l.004-.027.004-.031v-.028l.003-.027v-.027l.004-.028v-.027l.004-.027v-.028l.008-.054v-.028l.004-.027v-.023l.004-.028v-.027l.004-.023v-.028l.004-.023.004-.028v-.027l.003-.023v-.024l.024-.246.023-.234.02-.223.023-.215.02-.207.023-.2.024-.19.02-.188.023-.18.02-.175.023-.172.023-.164.02-.16.023-.16.02-.153.023-.152.023-.145.02-.145.023-.14.02-.137.023-.136.024-.133.02-.13.023-.128.02-.125.046-.242.02-.121.023-.118.02-.117.023-.113.024-.11.02-.113.023-.11.02-.105.046-.21.02-.102.023-.102.02-.101.046-.196.02-.097.023-.098.02-.094.023-.093.024-.09.02-.094.046-.18.02-.086.023-.09.02-.085.047-.172.019-.082.023-.086.02-.082.023-.082.024-.078.02-.082.023-.078.02-.079.046-.156.02-.078.023-.074.02-.075.023-.078.024-.074.02-.07.023-.074.02-.075.046-.14.02-.07.023-.07.02-.071.023-.07.023-.067.02-.07.023-.067.02-.066.047-.133.02-.066.023-.067.02-.062.023-.066.023-.063 2.188-4.96 2.191-3.45 2.188-2.711 2.187-2.27 2.191-1.96 2.188-1.743 2.191-1.574 2.188-1.434 2.191-1.324 2.188-1.234 2.187-1.153 2.192-1.081 2.187-1.028 2.192-.972 2.187-.93 2.191-.887 2.188-.848 2.191-.816 2.188-.781 2.187-.758 2.192-.73 2.187-.704 2.192-.687 2.187-.66 2.192-.645 2.187-.625 2.188-.61L79-87.292l2.188-.578 2.19-.567 2.188-.55 2.192-.54 2.187-.527 2.192-.515 2.187-.504 2.188-.492 2.191-.485 2.188-.476 2.191-.47 2.188-.456 2.191-.45 2.187-.44 2.188-.434 2.191-.43 2.188-.418 2.191-.414 2.188-.406 2.191-.403 2.188-.394 2.191-.387 2.188-.387 2.187-.375 2.191-.375 2.188-.367 2.191-.363 2.188-.356 2.191-.355 2.188-.348 2.187-.343 2.192-.34 2.187-.336 2.192-.332 2.187-.328 2.192-.329 2.187-.32 2.191-.316 4.375-.625 2.192-.305 2.187-.305 2.192-.3 2.187-.297 2.192-.293 2.187-.293 2.188-.289 2.191-.285 2.188-.286 2.191-.281 2.187-.277 2.192-.274 2.187-.273 2.192-.27 2.187-.269 2.188-.266 2.191-.261 2.188-.262 2.191-.258 2.188-.258 2.191-.254 2.187-.254 2.188-.25 2.191-.246 2.188-.246 2.191-.246 2.188-.242 2.191-.238 2.188-.243 2.187-.234 2.192-.234"/><path fill="none" stroke="red" stroke-linecap="square" stroke-miterlimit="3.25" stroke-width=".8" d="M15.516-36.46v-.08l.004-.073v-.07l.007-.141v-.063l.004-.066v-.059l.004-.062v-.059l.004-.058.004-.055v-.055l.004-.054v-.055l.004-.05v-.052l.004-.05v-.051l.004-.047.004-.05v-.048l.003-.047v-.047l.004-.043v-.046l.008-.086v-.043l.004-.043v-.043l.004-.04v-.042l.004-.04v-.038l.008-.078v-.04l.004-.039v-.039l.003-.039v-.035l.004-.039v-.035l.008-.07v-.036l.004-.035v-.035l.004-.035v-.035l.004-.035.004-.032v-.035l.004-.031v-.035l.004-.032v-.03l.004-.036v-.031l.007-.063v-.03l.004-.032v-.031l.004-.032v-.027l.004-.031v-.032l.004-.027.004-.031v-.031l.004-.028v-.027l.004-.031v-.028l.004-.027.004-.031v-.028l.003-.027v-.027l.004-.028v-.027l.004-.027v-.028l.008-.054v-.028l.004-.027v-.023l.004-.028v-.027l.004-.023v-.028l.004-.023.004-.028v-.027l.003-.023v-.024l.024-.246.023-.234.02-.223.023-.215.02-.207.023-.2.024-.19.02-.188.023-.18.02-.175.023-.172.023-.164.02-.16.023-.16.02-.153.023-.152.023-.145.02-.145.023-.14.02-.137.023-.136.024-.133.02-.13.023-.128.02-.125.023-.125.023-.121.02-.117.023-.118.02-.117.047-.226.02-.11.023-.11.02-.105.046-.21.02-.106.023-.102.02-.097.023-.102.023-.097.02-.098.023-.094.02-.094.047-.187.02-.09.046-.18.02-.09.023-.085.02-.09.023-.086.023-.082.02-.086.023-.082.02-.082.047-.164.02-.082.023-.078.02-.079.046-.156.02-.078.023-.074.02-.074.023-.078.024-.075.02-.07.023-.074.02-.075.046-.14.02-.07.023-.07.02-.071.046-.14.02-.067.023-.066.02-.07.047-.134.02-.066.023-.063.02-.066.023-.062.023-.067 2.188-4.98 2.191-3.48 2.188-2.75 2.187-2.31 2.191-2.011 2.188-1.79 2.191-1.62 2.188-1.489 2.191-1.378 2.188-1.29 2.187-1.21 2.192-1.141 2.187-1.086 2.192-1.035 2.187-.984 2.191-.95 2.188-.906 2.191-.879 2.188-.844 2.187-.82 2.192-.789 2.187-.77 2.192-.746 2.187-.726 2.192-.707 2.187-.688 2.188-.672L79-88.84l2.188-.64 2.19-.63 2.188-.613 2.192-.601 2.187-.59 2.192-.582 2.187-.567 2.188-.558 2.191-.547 2.188-.539 2.191-.527 2.188-.524 2.191-.511 2.187-.504 2.188-.5 2.191-.489 2.188-.484 2.191-.473 2.188-.472 2.191-.461 2.188-.457 2.191-.454 2.188-.445 2.187-.441 2.191-.434 2.188-.43 2.191-.425 2.188-.422 2.191-.414 2.188-.41 2.187-.407 2.192-.402 2.187-.398 2.192-.395 2.187-.387 2.192-.386 2.187-.383 2.191-.379 2.188-.375 2.187-.371 2.192-.367 2.187-.368 2.192-.359 2.187-.359 2.192-.356 2.187-.351 2.188-.348 2.191-.348 2.188-.343 2.191-.34 2.187-.34 2.192-.332 2.187-.336 2.192-.328 2.187-.328 2.188-.325 2.191-.324 2.188-.32 2.191-.32 2.188-.313 2.191-.316 2.187-.313 2.188-.308 2.191-.305 2.188-.309 2.191-.3 2.188-.301 2.191-.301 4.375-.594 2.192-.293"/><path fill="none" stroke="#00f" stroke-linecap="square" stroke-miterlimit="3.25" stroke-width=".8" d="M15.516-36.46v-.08l.004-.073v-.075l.007-.14v-.066l.004-.063v-.066l.004-.063v-.059l.004-.062.004-.059v-.054l.004-.059v-.055l.004-.054v-.055l.004-.055v-.05l.004-.055.004-.05v-.052l.003-.047v-.05l.004-.047V-38l.008-.094v-.047l.004-.047v-.042l.004-.047v-.043l.004-.047v-.043l.008-.086v-.043l.004-.04v-.042l.003-.043v-.04l.004-.042v-.04l.008-.077v-.043l.004-.04v-.038l.004-.035v-.04l.008-.078v-.035l.004-.039v-.035l.004-.035v-.04l.004-.035v-.035l.003-.035.004-.039v-.035l.004-.035v-.031l.004-.036v-.035l.004-.035v-.035l.004-.031.004-.035v-.032l.004-.035v-.031l.004-.035v-.032l.004-.03.004-.036v-.031l.003-.031v-.032l.004-.03v-.032l.004-.031v-.032l.008-.062v-.031l.004-.032v-.03l.004-.028v-.032l.004-.03v-.028l.008-.063v-.027l.003-.031v-.028l.024-.285.023-.273.02-.262.023-.254.02-.246.023-.238.024-.23.02-.223.023-.219.02-.21.023-.208.023-.2.02-.198.023-.192.02-.187.046-.367.02-.176.023-.172.02-.172.023-.168.024-.164.02-.164.023-.156.02-.16.046-.305.02-.149.023-.148.02-.145.023-.144.024-.14.02-.141.023-.137.02-.137.046-.265.02-.133.023-.13.02-.128.046-.25.02-.125.023-.121.02-.121.023-.121.024-.118.02-.117.023-.117.023-.113.02-.114.023-.113.02-.113.047-.219.019-.11.023-.109.02-.105.047-.211.02-.102.023-.105.02-.102.046-.203.02-.097.023-.102.02-.098.023-.097.024-.094.02-.098.023-.093.02-.098.046-.188.02-.09.023-.093.02-.09.046-.18.02-.09.023-.09.02-.09.047-.171.02-.09.023-.086.02-.082.046-.172 2.188-6.648 2.191-4.719 2.188-3.758 2.187-3.172 2.191-2.761 2.188-2.461 2.191-2.227 2.188-2.043 2.191-1.89 2.188-1.762 2.187-1.653 2.192-1.558 2.187-1.477 2.192-1.402 2.187-1.336 2.191-1.281 2.188-1.227 2.191-1.183 2.188-1.133 2.187-1.098 2.192-1.062 2.187-1.024 2.192-.996 2.187-.965 2.192-.937 2.187-.914 2.188-.887L79-105.41l2.188-.844 2.19-.824 2.188-.809 2.192-.785 2.187-.773 2.192-.754 2.187-.739 2.188-.726 2.191-.711 2.188-.695 2.191-.684 2.188-.672 2.191-.66 2.187-.652 2.188-.637 2.191-.629 2.188-.617 2.191-.606 2.188-.601 2.191-.59 2.188-.578 2.191-.574 2.188-.567 2.187-.554 2.191-.551 2.188-.539 2.191-.535 2.188-.528 2.191-.523 4.375-1.024 2.192-.5 2.187-.496 2.192-.492 2.187-.484 2.192-.481 2.187-.472 2.191-.469 2.188-.465 2.187-.457 2.192-.453 2.187-.449 2.192-.446 2.187-.441 2.192-.434 2.187-.433 2.188-.426 2.191-.422 2.188-.422 2.191-.414 2.187-.41 2.192-.41 2.187-.403 2.192-.402 4.375-.789 2.191-.391 2.188-.386 2.191-.383 2.188-.379 2.191-.379 2.187-.375 2.188-.371 2.191-.367 2.188-.367 2.191-.36 2.188-.359 2.191-.36 2.188-.355 2.187-.352 2.192-.347"/><path fill="none" stroke="red" stroke-linecap="square" stroke-miterlimit="3.25" stroke-width=".8" d="M15.516-36.46v-.08l.004-.073v-.075l.003-.074.004-.07v-.066l.004-.07v-.067l.004-.063v-.066l.004-.063.004-.058v-.063l.004-.058v-.063l.004-.058v-.059l.004-.055v-.058l.008-.11v-.054l.003-.055v-.055l.004-.054v-.051l.004-.055.004-.05v-.051l.004-.051v-.05l.004-.052v-.05l.004-.047v-.051l.004-.047.004-.05v-.048l.004-.047v-.05l.003-.047v-.047l.004-.043v-.047l.008-.094v-.043l.004-.047v-.042l.004-.047v-.043l.004-.047.004-.043v-.043l.004-.043v-.043l.004-.043v-.043l.004-.043v-.043l.003-.043.004-.039v-.043l.004-.043v-.039l.004-.043v-.039l.004-.043v-.04l.004-.042.004-.04v-.038l.004-.04v-.042l.004-.04v-.038l.008-.078v-.04l.003-.039v-.039l.004-.039v-.035l.004-.039v-.039l.004-.039.004-.035v-.04l.004-.038v-.035l.004-.04v-.035l.004-.039v-.035l.004-.039.004-.035v-.035l.003-.04v-.035l.024-.355.023-.348.02-.336.023-.328.02-.32.023-.313.024-.304.02-.297.023-.293.02-.29.023-.28.023-.278.02-.273.023-.27.02-.261.023-.262.023-.258.02-.25.023-.25.02-.246.023-.246.024-.238.02-.239.023-.234.02-.23.023-.231.023-.227.02-.222.023-.223.02-.219.023-.218.024-.215.02-.215.023-.211.02-.207.046-.414.02-.203.023-.203.02-.203.023-.196.023-.199.02-.195.023-.196.02-.191.047-.383.02-.187.046-.375.02-.184.023-.184.02-.183.047-.36.019-.18.023-.179.02-.176.023-.175.024-.172.02-.176.023-.172.02-.172.023-.168.023-.172.02-.168.023-.168.02-.168.047-.328.02-.164.023-.164.02-.16.023-.164.023-.16.02-.16.023-.16.02-.157.023-.156.023-.16.02-.153.023-.156.02-.156.047-.305.02-.152.023-.152.02-.153.023-.152.023-.148 2.188-12.676 2.191-10.012 2.188-8.57 2.187-7.621 2.191-6.942 2.188-6.414 2.191-5.996 2.188-5.652 2.191-5.36 2.188-5.109 2.187-4.895 2.192-4.703 2.187-4.535.356-.703"/><path fill="none" stroke="#000" stroke-miterlimit="3.25" stroke-width=".5" d="M15.512-13.828v-2.7M26.457-13.828v-1.621M37.406-13.828v-1.621M48.352-13.828v-1.621M59.297-13.828v-2.7"/><path d="M58.791-3.437v.757H54.55c-.012-.19.025-.373.093-.549.104-.293.282-.573.522-.852.235-.286.583-.6 1.028-.964.69-.58 1.161-1.027 1.41-1.36.244-.336.372-.646.372-.945a1.04 1.04 0 0 0-.336-.785c-.226-.215-.515-.32-.875-.32-.384-.001-.684.115-.912.344-.228.226-.343.545-.346.95l-.817-.1c.05-.602.265-1.061.629-1.377.361-.317.851-.474 1.464-.474.615-.003 1.108.17 1.468.512.354.334.541.763.541 1.267 0 .254-.053.509-.159.757a2.96 2.96 0 0 1-.527.782c-.25.272-.65.65-1.213 1.127-.473.391-.777.664-.911.805a2.217 2.217 0 0 0-.334.425h3.144Zm.882-2.407c-.006-.762.079-1.367.235-1.83.153-.467.39-.82.7-1.068.304-.253.697-.37 1.166-.37.34-.003.65.07.915.207.26.133.48.338.646.598.167.256.298.577.395.951.092.373.145.878.145 1.512 0 .745-.078 1.358-.233 1.822-.158.458-.388.82-.697 1.07-.312.245-.7.372-1.171.372-.628-.007-1.11-.218-1.463-.654-.43-.54-.638-1.409-.638-2.61Zm.817-.002c-.005 1.048.123 1.75.37 2.094.245.34.552.514.914.514.356 0 .667-.172.914-.516.243-.347.37-1.042.37-2.092 0-1.054-.122-1.746-.367-2.091-.25-.346-.554-.518-.926-.518-.366-.001-.653.152-.873.457-.274.388-.402 1.105-.402 2.152Z"/><path fill="none" stroke="#000" stroke-miterlimit="3.25" stroke-width="4.5" d="M70.242-13.828v-1.621M81.188-13.828v-1.621M92.137-13.828v-1.621M103.082-13.828v-2.7"/><path d="M100.982-2.68v-1.533h-2.807v-.717l2.987-4.162h.617v4.162h.876v.717h-.876v1.533h-.797Zm0-2.25v-2.86l-2.028 2.86h2.028Zm2.476-.914c-.007-.762.078-1.367.235-1.83.152-.467.389-.82.698-1.068.305-.253.698-.37 1.167-.37.34-.003.65.07.915.207.26.133.48.338.646.598.167.256.298.577.395.951.092.373.145.878.145 1.512 0 .745-.078 1.358-.233 1.822-.158.458-.387.82-.697 1.07-.312.245-.7.372-1.17.372-.629-.007-1.11-.218-1.464-.654-.43-.54-.637-1.409-.637-2.61Zm.816-.002c-.005 1.048.123 1.75.37 2.094.245.34.552.514.914.514.356 0 .667-.172.914-.516.243-.347.37-1.042.37-2.092 0-1.054-.122-1.746-.367-2.091-.25-.346-.554-.518-.926-.518-.365-.001-.653.152-.872.457-.275.388-.403 1.105-.403 2.152Z"/><path fill="none" stroke="#000" stroke-miterlimit="3.25" stroke-width="4.5" d="M114.027-13.828v-1.621M124.973-13.828v-1.621M135.918-13.828v-1.621M146.863-13.828v-2.7"/><path d="m146.34-7.519-.817.06c-.07-.305-.166-.526-.292-.664a1.008 1.008 0 0 0-.773-.332 1.077 1.077 0 0 0-.659.208c-.237.174-.426.44-.566.783-.145.338-.213.835-.219 1.475a1.808 1.808 0 0 1 1.545-.853c.521-.006.965.193 1.33.579.363.38.55.884.55 1.495 0 .398-.087.775-.26 1.12-.181.34-.413.61-.717.793a1.979 1.979 0 0 1-1.034.275c-.66-.007-1.194-.241-1.608-.723-.415-.487-.623-1.274-.623-2.38-.006-1.242.23-2.135.691-2.696.398-.489.942-.733 1.622-.733.504-.003.923.141 1.247.423.318.279.518.673.582 1.17Zm-3.246 2.752c-.005.265.057.527.173.773.113.244.275.434.479.563.202.126.423.193.658.193.338 0 .628-.133.864-.4.233-.267.354-.628.354-1.086 0-.446-.116-.787-.35-1.04-.237-.26-.533-.38-.899-.38a1.196 1.196 0 0 0-.907.38c-.25.248-.372.585-.372.997Zm4.147-1.077c-.006-.762.079-1.367.235-1.83.153-.467.39-.82.7-1.068.304-.253.697-.37 1.166-.37.34-.003.65.07.915.207.26.133.48.338.646.598.167.256.298.577.395.951.092.373.145.878.145 1.512 0 .745-.078 1.358-.233 1.822-.158.458-.388.82-.697 1.07-.312.245-.7.372-1.171.372-.628-.007-1.109-.218-1.463-.654-.43-.54-.638-1.409-.638-2.61Zm.817-.002c-.005 1.048.123 1.75.37 2.094.245.34.552.514.914.514.356 0 .667-.172.914-.516.243-.347.37-1.042.37-2.092 0-1.054-.122-1.746-.367-2.091-.25-.346-.554-.518-.926-.518-.365-.001-.653.152-.873.457-.274.388-.402 1.105-.402 2.152Z"/><path fill="none" stroke="#000" stroke-miterlimit="3.25" stroke-width="4.5" d="M157.813-13.828v-1.621M168.758-13.828v-1.621M179.703-13.828v-1.621M190.648-13.828v-2.7"/><path d="M187.233-6.164c-.334-.125-.575-.29-.734-.51-.165-.222-.239-.485-.239-.792a1.519 1.519 0 0 1 .503-1.171c.335-.318.781-.475 1.338-.475.554-.003 1.01.162 1.351.486.338.319.512.717.512 1.182 0 .29-.079.553-.236.772-.158.217-.395.388-.715.508.391.123.695.335.901.62.202.28.309.627.309 1.023 0 .541-.194 1.008-.581 1.381-.394.373-.898.56-1.53.56-.635-.007-1.142-.188-1.53-.562-.393-.38-.58-.842-.58-1.4-.007-.423.106-.766.32-1.047.207-.285.516-.473.91-.575Zm-.156-1.321a.987.987 0 0 0 .285.736c.184.187.443.285.759.285.3-.005.555-.094.744-.283a.955.955 0 0 0 .283-.695.977.977 0 0 0-.292-.72c-.2-.201-.443-.293-.744-.293a1.005 1.005 0 0 0-.746.286.916.916 0 0 0-.29.684Zm-.259 2.94c-.005.219.051.44.153.65.1.207.259.37.47.485.206.112.438.172.678.172.374 0 .689-.12.928-.361.238-.242.36-.548.36-.92-.002-.378-.124-.69-.37-.937-.252-.248-.562-.37-.944-.37a1.205 1.205 0 0 0-.918.366c-.242.244-.357.549-.357.915Zm4.207-1.3c-.006-.76.079-1.366.235-1.83.153-.466.39-.82.7-1.067.304-.253.697-.37 1.166-.37.34-.003.65.07.915.207.26.133.48.338.646.598.167.256.298.577.395.951.092.373.145.878.145 1.512 0 .745-.078 1.358-.233 1.822-.158.458-.388.82-.697 1.07-.312.245-.7.372-1.17.372-.629-.007-1.11-.218-1.464-.654-.43-.54-.638-1.409-.638-2.61Zm.817-.001c-.005 1.048.123 1.75.37 2.094.245.34.552.514.914.514.356 0 .667-.172.914-.516.243-.347.37-1.042.37-2.092 0-1.054-.122-1.746-.367-2.091-.25-.346-.554-.518-.926-.518-.365-.001-.653.152-.872.457-.275.388-.403 1.105-.403 2.152Z"/><path fill="none" stroke="#000" stroke-miterlimit="3.25" stroke-width="4.5" d="M201.594-13.828v-1.621M212.543-13.828v-1.621M223.488-13.828v-1.621M234.434-13.828v-2.7"/><path d="M230.25-2.68h-.796v-5.012c-.19.178-.432.361-.736.542a5.698 5.698 0 0 1-.817.406v-.76c.43-.212.817-.457 1.143-.751.32-.296.557-.58.693-.857h.513v6.432Zm2.057-3.164c-.006-.762.079-1.367.235-1.83.153-.467.39-.82.7-1.068.304-.253.697-.37 1.166-.37.34-.003.65.07.915.207.26.133.48.338.646.598.167.256.298.577.395.951.092.373.145.878.145 1.512 0 .745-.078 1.358-.233 1.822-.158.458-.388.82-.697 1.07-.312.245-.7.372-1.17.372-.629-.007-1.11-.218-1.464-.654-.43-.54-.638-1.409-.638-2.61Zm.817-.002c-.005 1.048.123 1.75.37 2.094.245.34.552.514.914.514.356 0 .667-.172.914-.516.243-.347.37-1.042.37-2.092 0-1.054-.122-1.746-.367-2.091-.25-.346-.554-.518-.926-.518-.365-.001-.653.152-.872.457-.275.388-.403 1.105-.403 2.152Zm4.187.002c-.006-.762.079-1.367.235-1.83.153-.467.39-.82.7-1.068.304-.253.697-.37 1.166-.37.34-.003.65.07.915.207.26.133.48.338.646.598.167.256.298.577.395.951.092.373.145.878.145 1.512 0 .745-.078 1.358-.233 1.822-.158.458-.388.82-.697 1.07-.312.245-.7.372-1.171.372-.628-.007-1.109-.218-1.463-.654-.43-.54-.638-1.409-.638-2.61Zm.817-.002c-.005 1.048.123 1.75.37 2.094.245.34.552.514.914.514.356 0 .667-.172.914-.516.243-.347.37-1.042.37-2.092 0-1.054-.122-1.746-.367-2.091-.25-.346-.554-.518-.926-.518-.365-.001-.653.152-.873.457-.274.388-.402 1.105-.402 2.152Z"/><path fill="none" stroke="#000" stroke-miterlimit="3.25" stroke-width="4.5" d="M10.953-13.828h228.039"/><path d="m247.273-10.29.805.08c-.007.171.016.31.064.398a.496.496 0 0 0 .231.206c.134.062.321.093.544.093.467-.005.805-.123 1.01-.37.13-.166.26-.524.373-1.077l.079-.376c-.41.415-.844.629-1.304.629-.467 0-.857-.173-1.171-.52-.318-.346-.472-.836-.472-1.47a2.814 2.814 0 0 1 .37-1.442c.245-.44.542-.769.884-.992a1.85 1.85 0 0 1 1.054-.335c.602 0 1.07.28 1.397.839l.168-.74h.715l-.944 4.495c-.1.487-.232.875-.396 1.15-.165.273-.39.488-.681.64-.293.15-.627.226-1.009.226-.372-.004-.683-.047-.948-.143-.268-.099-.463-.236-.594-.42a1.043 1.043 0 0 1-.195-.635c-.006-.077.006-.151.02-.235Zm.956-2.491c-.005.317.03.56.092.721.085.224.212.399.374.517a.904.904 0 0 0 .542.178c.258 0 .518-.09.775-.272.25-.185.465-.463.624-.843.159-.383.239-.744.239-1.09 0-.396-.106-.701-.318-.932a1.02 1.02 0 0 0-.786-.347 1.04 1.04 0 0 0-.561.156c-.186.1-.35.263-.506.475-.16.21-.275.467-.355.764a2.56 2.56 0 0 0-.12.673Z"/><path fill="none" stroke="#000" stroke-miterlimit="3.25" stroke-width="4.5" d="M15.512-13.828h2.703M15.512-18.336h1.62M15.512-22.848h1.62M15.512-27.36h1.62M15.512-31.867h1.62M15.512-36.379h2.703"/><path d="M.378-36.421c-.006-.762.079-1.367.235-1.831.153-.466.39-.82.7-1.067.304-.253.697-.37 1.166-.37.34-.003.65.069.915.207.26.133.48.337.646.598.167.256.298.577.395.951.092.372.145.878.145 1.512 0 .745-.078 1.358-.233 1.822-.158.458-.388.82-.697 1.069-.312.246-.7.372-1.17.372-.629-.006-1.11-.217-1.464-.653-.43-.541-.638-1.41-.638-2.61Zm.817-.003c-.005 1.049.123 1.751.37 2.095.245.34.552.514.914.514.356 0 .667-.172.914-.517.243-.346.37-1.042.37-2.092 0-1.053-.122-1.746-.367-2.09-.25-.346-.554-.518-.926-.518-.365-.002-.653.152-.873.457-.274.387-.402 1.105-.402 2.151ZM5.8-33.257v-.896h.895v.896h-.895Zm2.074-1.693.817-.06c.056.395.203.695.424.896.215.198.494.3.818.3.386-.002.718-.143.977-.428.255-.29.39-.662.39-1.133-.002-.448-.125-.8-.373-1.059-.252-.26-.583-.388-1.003-.388a1.325 1.325 0 0 0-.695.172 1.291 1.291 0 0 0-.479.445l-.736-.099.617-3.286h3.186v.757H9.26l-.344 1.718c.384-.27.787-.404 1.21-.404a1.895 1.895 0 0 1 1.413.582c.383.388.577.886.577 1.496-.007.575-.17 1.082-.507 1.505-.414.519-.97.778-1.68.778-.586-.006-1.056-.163-1.424-.49-.371-.33-.578-.762-.63-1.302Z"/><path fill="none" stroke="#000" stroke-miterlimit="3.25" stroke-width="4.5" d="M15.512-40.887h1.62M15.512-45.398h1.62M15.512-49.906h1.62M15.512-54.418h1.62M15.512-58.926h2.703"/><path d="M3.325-55.807H2.53v-5.012c-.19.178-.432.361-.736.542a5.698 5.698 0 0 1-.817.406v-.76c.43-.212.817-.457 1.143-.751.32-.296.557-.58.693-.857h.513v6.432Zm2.476 0v-.896h.895v.896h-.895Zm2.074-3.164c-.006-.762.079-1.367.235-1.83.153-.467.39-.82.7-1.068.304-.253.697-.37 1.166-.37.34-.003.65.07.915.207.26.133.48.338.646.598.167.256.298.577.395.951.092.373.145.878.145 1.512 0 .745-.078 1.358-.233 1.822-.158.458-.388.82-.697 1.07-.312.245-.7.372-1.17.372-.629-.007-1.11-.218-1.464-.654-.43-.54-.638-1.409-.638-2.61Zm.817-.002c-.005 1.048.123 1.75.37 2.094.245.34.552.514.914.514.356 0 .667-.172.914-.517.243-.346.37-1.041.37-2.091 0-1.054-.122-1.746-.367-2.091-.25-.346-.554-.518-.926-.518-.366-.002-.653.152-.873.457-.274.387-.402 1.105-.402 2.152Z"/><path fill="none" stroke="#000" stroke-miterlimit="3.25" stroke-width="4.5" d="M15.512-63.438h1.62M15.512-67.945h1.62M15.512-72.457h1.62M15.512-76.969h1.62M15.512-81.477h2.703"/><path d="M3.325-78.357H2.53v-5.012c-.19.178-.432.362-.736.542a5.696 5.696 0 0 1-.817.407v-.76c.43-.213.817-.458 1.143-.752.32-.296.557-.58.693-.857h.513v6.432Zm2.476 0v-.896h.895v.896h-.895Zm2.074-1.692.817-.06c.056.394.203.695.424.895.215.199.494.3.818.3.386-.001.718-.143.977-.427.255-.29.39-.663.39-1.133-.002-.449-.125-.8-.373-1.06-.252-.26-.583-.387-1.003-.387a1.325 1.325 0 0 0-.695.172 1.29 1.29 0 0 0-.479.445l-.736-.1.617-3.285h3.186v.757H9.26l-.344 1.717c.384-.27.787-.403 1.21-.403a1.895 1.895 0 0 1 1.413.581c.383.388.577.887.577 1.497-.007.574-.17 1.081-.507 1.504-.414.519-.97.779-1.68.779-.586-.007-1.056-.164-1.424-.491-.371-.33-.578-.761-.63-1.301Z"/><path fill="none" stroke="#000" stroke-miterlimit="3.25" stroke-width="4.5" d="M15.512-85.988h1.62M15.512-90.496h1.62M15.512-95.008h1.62M15.512-99.516h1.62M15.512-104.027h2.703"/><path d="M4.5-101.664v.757H.26c-.012-.19.025-.373.093-.548.104-.294.283-.574.522-.853.235-.286.583-.6 1.028-.964.69-.58 1.161-1.027 1.41-1.36.244-.336.372-.646.372-.945a1.04 1.04 0 0 0-.336-.785c-.226-.215-.515-.32-.875-.32-.384-.001-.684.115-.912.344-.228.226-.343.546-.346.95l-.817-.099c.05-.603.265-1.062.629-1.378.361-.317.851-.474 1.464-.474.615-.003 1.108.17 1.468.512.355.334.541.763.541 1.268 0 .253-.053.508-.159.756a2.96 2.96 0 0 1-.527.782c-.25.272-.65.65-1.213 1.127-.473.391-.777.664-.911.805a2.218 2.218 0 0 0-.334.425H4.5Zm1.3.757v-.896h.896v.896h-.895Zm2.075-3.164c-.006-.762.079-1.366.235-1.83.153-.467.39-.82.7-1.068.304-.253.697-.37 1.166-.37.34-.003.65.07.915.207.26.133.48.338.646.598.167.256.298.577.395.951.092.373.145.878.145 1.512 0 .745-.078 1.358-.233 1.822-.158.458-.388.82-.697 1.07-.312.245-.7.372-1.17.372-.629-.007-1.11-.218-1.464-.653-.43-.542-.638-1.41-.638-2.611Zm.817-.002c-.005 1.048.123 1.75.37 2.094.245.34.552.515.914.515.356-.001.667-.173.914-.517.243-.347.37-1.042.37-2.092 0-1.054-.122-1.746-.367-2.091-.25-.346-.554-.518-.926-.518-.366-.001-.653.153-.873.457-.274.388-.402 1.106-.402 2.152Z"/><path fill="none" stroke="#000" stroke-miterlimit="3.25" stroke-width="4.5" d="M15.512-108.535h1.62M15.512-113.047h1.62M15.512-117.559h1.62M15.512-122.066h1.62M15.512-126.578h2.703"/><path d="M4.5-124.214v.757H.26c-.012-.19.025-.373.093-.548.104-.294.283-.574.522-.853.235-.286.583-.6 1.028-.964.69-.58 1.161-1.027 1.41-1.36.244-.336.372-.646.372-.945a1.04 1.04 0 0 0-.336-.785c-.226-.215-.515-.32-.875-.32-.384-.001-.684.115-.912.344-.228.226-.343.546-.346.95l-.817-.099c.05-.603.265-1.062.629-1.378.361-.317.851-.474 1.464-.474.615-.003 1.108.17 1.468.512.355.334.541.763.541 1.267 0 .254-.053.51-.159.757a2.96 2.96 0 0 1-.527.782c-.25.272-.65.65-1.213 1.127-.473.391-.777.664-.911.805a2.218 2.218 0 0 0-.334.425H4.5Zm1.3.757v-.896h.896v.896h-.895Zm2.075-1.693.817-.06c.056.395.203.696.424.896.215.199.494.3.818.3.386-.001.718-.143.977-.427.255-.29.39-.663.39-1.134-.002-.448-.125-.8-.373-1.059-.252-.26-.583-.387-1.003-.387a1.325 1.325 0 0 0-.695.171 1.29 1.29 0 0 0-.479.446l-.736-.1.617-3.285h3.186v.756H9.26l-.344 1.718c.384-.27.787-.403 1.21-.403a1.895 1.895 0 0 1 1.413.581c.383.388.577.887.577 1.497-.007.574-.17 1.081-.507 1.504-.414.519-.97.779-1.68.779-.586-.007-1.056-.164-1.424-.491-.371-.33-.578-.761-.63-1.302Z"/><path fill="none" stroke="#000" stroke-miterlimit="3.25" stroke-width="4.5" d="M15.512-131.086h1.62M15.512-135.598h1.62M15.512-140.105h1.62M15.512-144.617h1.62M15.512-149.125h2.703"/><path d="m.378-147.699.817-.1c.085.435.242.753.455.946.21.189.479.29.797.29.373-.001.689-.128.94-.384.249-.262.376-.573.376-.95 0-.364-.117-.658-.353-.892-.239-.24-.535-.351-.898-.351a2.128 2.128 0 0 0-.554.087l.087-.696c.05 0 .094.008.125.008.319-.002.611-.086.869-.258.251-.175.386-.438.386-.796a.943.943 0 0 0-.288-.706c-.198-.188-.44-.28-.744-.28a1.03 1.03 0 0 0-.752.289c-.2.188-.33.481-.387.866l-.816-.14c.09-.53.315-.942.656-1.234.336-.294.765-.438 1.272-.438a2.08 2.08 0 0 1 .966.224c.29.145.52.352.676.61.153.257.234.531.234.82-.001.275-.075.526-.224.752a1.59 1.59 0 0 1-.66.538c.373.084.677.27.895.545.214.27.327.62.327 1.035 0 .556-.204 1.034-.613 1.424-.41.384-.925.584-1.55.584-.568-.007-1.03-.167-1.402-.5-.377-.332-.584-.763-.637-1.293Zm5.423 1.693v-.896h.895v.896h-.895Zm2.074-3.164c-.006-.762.079-1.366.235-1.83.153-.467.39-.82.7-1.068.304-.253.697-.37 1.166-.37.34-.003.65.07.915.207.26.133.48.338.646.598.167.256.298.577.395.951.092.373.145.878.145 1.512 0 .745-.078 1.358-.233 1.822-.158.458-.388.82-.697 1.07-.312.245-.7.372-1.17.372-.629-.007-1.11-.218-1.464-.653-.43-.542-.638-1.41-.638-2.611Zm.817-.002c-.005 1.048.123 1.75.37 2.094.245.34.552.514.914.514.356 0 .667-.172.914-.516.243-.347.37-1.042.37-2.092 0-1.054-.122-1.746-.367-2.091-.25-.346-.554-.518-.926-.518-.366-.001-.653.152-.873.457-.274.388-.402 1.105-.402 2.152Z"/><path fill="none" stroke="#000" stroke-miterlimit="3.25" stroke-width="4.5" d="M15.512-11.008v-140.937"/><path d="m7.39-159.853 1.334-6.412h4.66l-.14.717H9.427l-.423 2.031h3.741l-.16.717h-3.73l-.464 2.23h4.058l-.153.717H7.39ZM15.664-157.971h-.565a7.442 7.442 0 0 1-.636-.944 6.98 6.98 0 0 1-.81-2.124 5.58 5.58 0 0 1-.111-1.133 5.273 5.273 0 0 1 .113-1.14 6.3 6.3 0 0 1 .32-1.087c.133-.358.3-.695.492-1.026.19-.334.402-.648.632-.951h.565c-.207.332-.393.671-.556 1-.165.322-.3.661-.411 1.001-.115.334-.196.69-.254 1.05a6.456 6.456 0 0 0-.088 1.145c-.004.369.032.743.094 1.11.061.367.151.73.265 1.084.11.352.251.7.412 1.036.16.336.34.663.538.979ZM16.278-159.435l.806.08c-.008.17.015.309.064.397a.496.496 0 0 0 .23.206c.134.062.322.094.545.094.467-.005.805-.124 1.01-.37.13-.167.259-.524.373-1.078l.079-.376c-.411.416-.844.629-1.305.629-.466 0-.856-.173-1.17-.519-.318-.347-.472-.836-.472-1.47a2.814 2.814 0 0 1 .37-1.442c.245-.441.542-.77.883-.993a1.85 1.85 0 0 1 1.054-.335c.603 0 1.07.28 1.397.839l.169-.74h.714l-.943 4.496c-.101.486-.233.874-.396 1.15-.166.273-.39.487-.682.639-.292.15-.627.227-1.008.227-.373-.004-.683-.048-.948-.144-.268-.098-.463-.236-.594-.42a1.044 1.044 0 0 1-.196-.635c-.006-.077.007-.15.02-.235Zm.956-2.492c-.005.318.03.56.092.722.086.223.213.398.375.517a.904.904 0 0 0 .541.178c.259-.001.518-.09.775-.272.251-.186.465-.463.624-.844.16-.383.24-.744.24-1.09 0-.396-.106-.7-.318-.932a1.02 1.02 0 0 0-.787-.347 1.04 1.04 0 0 0-.56.156c-.187.1-.35.263-.507.476-.16.21-.274.467-.354.763a2.56 2.56 0 0 0-.12.673ZM23.45-162.172a5.83 5.83 0 0 1-.114 1.136c-.08.366-.183.734-.32 1.087a8.06 8.06 0 0 1-.492 1.026 9.471 9.471 0 0 1-.632.952h-.565c.203-.333.388-.664.551-.994.159-.332.3-.665.412-1.006.109-.342.196-.693.256-1.054.059-.365.09-.742.09-1.138a7.01 7.01 0 0 0-.095-1.112 8.533 8.533 0 0 0-.264-1.082 8.61 8.61 0 0 0-.414-1.04c-.168-.343-.34-.664-.536-.98h.565c.23.292.446.612.639.943a6.908 6.908 0 0 1 .807 2.131c.07.372.111.752.111 1.131ZM157.811-91.504v-.916h8.96v.916h-8.96ZM172.193-89.632l1.335-6.412h4.66l-.14.717h-3.816l-.423 2.031h3.741l-.16.717h-3.73l-.464 2.23h4.058l-.154.717h-4.907ZM180.467-87.75h-.564a7.442 7.442 0 0 1-.637-.943 6.982 6.982 0 0 1-.81-2.125 5.58 5.58 0 0 1-.11-1.133 5.273 5.273 0 0 1 .113-1.14c.072-.372.182-.734.32-1.087.133-.358.3-.695.491-1.026.19-.334.402-.648.633-.951h.564c-.207.332-.392.671-.555 1-.165.322-.3.661-.412 1.001-.115.334-.195.69-.254 1.05a6.457 6.457 0 0 0-.087 1.145c-.004.369.031.743.094 1.11.06.367.15.73.265 1.084.11.352.25.7.411 1.037.16.335.34.662.538.978ZM181.082-89.214l.805.08c-.007.17.016.309.064.397a.496.496 0 0 0 .231.206c.134.062.321.094.544.094.467-.005.805-.124 1.01-.37.13-.167.26-.524.373-1.078l.079-.376c-.41.416-.844.63-1.304.63-.467 0-.857-.174-1.171-.52-.318-.347-.472-.836-.472-1.47a2.814 2.814 0 0 1 .37-1.442c.245-.441.542-.77.884-.993a1.85 1.85 0 0 1 1.054-.335c.602 0 1.07.28 1.397.84l.168-.74h.715l-.944 4.495c-.101.486-.232.875-.396 1.15-.165.273-.39.488-.681.639-.293.15-.627.227-1.009.227-.372-.004-.683-.048-.948-.144-.268-.098-.463-.236-.594-.42a1.043 1.043 0 0 1-.195-.634c-.006-.078.006-.152.02-.236Zm.956-2.492c-.005.318.03.56.092.722.085.223.212.398.374.517a.904.904 0 0 0 .542.178c.258-.001.518-.09.775-.272.25-.185.465-.463.624-.844.159-.383.239-.744.239-1.09 0-.396-.106-.7-.318-.932a1.02 1.02 0 0 0-.786-.347 1.04 1.04 0 0 0-.561.156c-.186.1-.35.263-.506.476-.16.21-.275.467-.355.763a2.56 2.56 0 0 0-.12.673ZM188.253-91.95a5.83 5.83 0 0 1-.114 1.135c-.08.366-.182.734-.32 1.087a8.06 8.06 0 0 1-.491 1.026 9.47 9.47 0 0 1-.633.952h-.564c.203-.333.388-.664.551-.994.158-.332.3-.665.411-1.006a7.078 7.078 0 0 0 .346-2.192 7.01 7.01 0 0 0-.094-1.111 8.534 8.534 0 0 0-.265-1.083 8.61 8.61 0 0 0-.413-1.04 11.1 11.1 0 0 0-.536-.98h.564c.23.292.447.612.64.943a6.907 6.907 0 0 1 .806 2.131c.07.372.112.752.112 1.131ZM193.965-87.75h-.564a7.442 7.442 0 0 1-.637-.943 6.98 6.98 0 0 1-.81-2.125 5.581 5.581 0 0 1-.11-1.133 5.273 5.273 0 0 1 .113-1.14c.072-.372.182-.734.32-1.087.133-.358.3-.695.492-1.026.19-.334.401-.648.632-.951h.564c-.207.332-.392.671-.555 1-.165.322-.3.661-.411 1.001-.116.334-.196.69-.255 1.05a6.456 6.456 0 0 0-.087 1.145c-.004.369.031.743.094 1.11.06.367.151.73.265 1.084.11.352.25.7.411 1.037.16.335.34.662.538.978ZM198.095-91.125l.8.1c-.134.47-.368.84-.716 1.1-.355.26-.794.393-1.336.393-.683-.007-1.224-.21-1.624-.628-.406-.423-.6-1.007-.6-1.762-.006-.786.203-1.39.607-1.821.402-.435.928-.648 1.573-.648.618 0 1.133.211 1.529.634.393.418.593 1.018.593 1.784-.007.04-.002.117-.005.21h-3.48c.024.506.175.898.438 1.168.258.265.59.406.982.406.287-.001.542-.075.748-.224.206-.155.37-.386.491-.712Zm-2.639-1.295h2.648c-.037-.389-.137-.673-.303-.866a1.255 1.255 0 0 0-.996-.448c-.37-.006-.68.12-.932.358-.255.233-.39.557-.417.956Zm3.909 2.788 1.676-2.39-1.577-2.27h.965l.75 1.114c.125.206.233.382.31.516.14-.205.264-.378.37-.529l.771-1.1h.969l-1.592 2.27 1.659 2.39h-.965l-.937-1.42-.217-.313-1.214 1.732h-.968Zm8.084-.577c-.284.246-.56.422-.835.524a2.57 2.57 0 0 1-.88.153c-.52-.007-.915-.125-1.193-.373a1.21 1.21 0 0 1-.417-.954 1.18 1.18 0 0 1 .157-.622c.1-.192.243-.338.413-.452.167-.12.362-.2.575-.257a5.62 5.62 0 0 1 .71-.118c.64-.077 1.121-.166 1.426-.271l.004-.206c-.001-.325-.075-.55-.225-.681-.209-.18-.504-.268-.903-.268-.379-.006-.65.065-.827.193-.18.125-.31.357-.395.683l-.796-.1c.064-.334.186-.596.348-.8.16-.207.395-.359.7-.469a3.09 3.09 0 0 1 1.063-.164c.397 0 .725.047.974.14.249.094.434.212.551.354.113.137.2.32.247.537.026.13.04.377.04.727v1.049c0 .729.016 1.195.048 1.39.03.19.096.383.19.562h-.816a1.649 1.649 0 0 1-.159-.577Zm-.04-1.753c-.294.113-.731.215-1.316.297-.334.044-.566.098-.703.157a.681.681 0 0 0-.318.254.626.626 0 0 0-.112.373.65.65 0 0 0 .243.522c.157.135.4.21.713.21.306-.001.586-.067.827-.2.235-.134.419-.314.532-.543.083-.177.13-.438.13-.783l.004-.287Zm5.044.618.777.1c-.085.533-.303.954-.653 1.257-.352.302-.78.455-1.289.455-.644-.007-1.15-.208-1.539-.624-.388-.421-.582-1.012-.582-1.788a3.12 3.12 0 0 1 .25-1.318c.164-.38.42-.658.761-.846a2.24 2.24 0 0 1 1.112-.283c.506 0 .92.13 1.241.39.321.255.528.626.619 1.103l-.757.1c-.075-.315-.203-.544-.389-.7a1 1 0 0 0-.675-.236 1.215 1.215 0 0 0-.972.425c-.251.282-.373.73-.373 1.343-.005.62.12 1.073.36 1.354.234.282.552.423.938.423.306-.001.569-.095.776-.284.205-.195.34-.48.395-.871Zm3.166 1.004.1.696c-.226.045-.422.072-.597.072-.29-.007-.509-.045-.666-.136a.757.757 0 0 1-.334-.357c-.069-.15-.096-.458-.096-.932v-2.677h-.578v-.618h.578v-1.15l.796-.473v1.623h.797v.618h-.797v2.705c-.004.223.014.367.042.431.023.06.074.115.137.153.059.035.153.056.27.056.087 0 .204-.004.348-.011ZM218.247-91.95a5.829 5.829 0 0 1-.114 1.135c-.08.366-.182.734-.32 1.087a8.06 8.06 0 0 1-.491 1.026 9.469 9.469 0 0 1-.633.952h-.564c.203-.333.388-.664.551-.994.158-.332.3-.665.411-1.006a7.08 7.08 0 0 0 .346-2.192 7.011 7.011 0 0 0-.094-1.111 8.535 8.535 0 0 0-.265-1.083 8.61 8.61 0 0 0-.413-1.04c-.169-.343-.34-.664-.536-.98h.564c.23.292.447.612.64.943a6.906 6.906 0 0 1 .806 2.131c.07.372.112.752.112 1.131Z"/><path fill="#00f" d="M157.811-78.77v-.916h8.96v.916h-8.96ZM172.193-76.898l1.335-6.412h4.66l-.14.717h-3.816l-.423 2.03h3.741l-.16.718h-3.73l-.464 2.23h4.058l-.154.717h-4.907ZM180.274-75.81a2.267 2.267 0 0 1-.568.362c-.185.07-.376.11-.584.11-.31 0-.556-.09-.744-.268a.91.91 0 0 1-.282-.688.877.877 0 0 1 .126-.488.927.927 0 0 1 .335-.341c.139-.091.309-.148.51-.185.127-.028.373-.044.726-.059.347-.018.606-.051.759-.111.036-.156.062-.285.062-.388-.006-.137-.047-.237-.142-.313-.136-.111-.32-.157-.571-.157-.237-.001-.429.055-.579.166a.913.913 0 0 0-.327.473l-.56-.06c.11-.33.3-.581.55-.756.248-.177.568-.263.95-.263.4 0 .729.097.966.292a.69.69 0 0 1 .273.566c-.006.176-.025.38-.076.613l-.179.821a3.035 3.035 0 0 0-.085.638c-.006.1.022.253.067.448h-.564a2.158 2.158 0 0 1-.063-.411Zm.199-1.28c-.083.029-.16.055-.249.072a5.634 5.634 0 0 1-.464.053 3.183 3.183 0 0 0-.692.11.568.568 0 0 0-.309.213.525.525 0 0 0-.104.323.493.493 0 0 0 .166.389c.109.099.267.152.47.152a1.108 1.108 0 0 0 .953-.56c.095-.176.174-.426.229-.752ZM184.739-77.484h-3.02v-.523h3.02v.523Zm0 1.388h-3.02v-.523h3.02v.523ZM185.369-76.598l.56-.08c.057.319.17.549.32.69.15.137.339.21.566.21.266 0 .49-.091.667-.274a.96.96 0 0 0 .265-.68c-.006-.259-.083-.469-.25-.636a.852.852 0 0 0-.636-.251 1.32 1.32 0 0 0-.392.062l.062-.5a1.171 1.171 0 0 0 .732-.182c.185-.125.284-.318.284-.579a.71.71 0 0 0-.21-.514.74.74 0 0 0-.54-.204.773.773 0 0 0-.547.2c-.146.133-.24.333-.282.6l-.56-.08c.062-.375.224-.665.466-.87.24-.21.543-.31.903-.31.245 0 .476.054.685.162.204.106.368.254.479.44.107.184.166.382.166.591a1.036 1.036 0 0 1-.159.542 1.167 1.167 0 0 1-.47.388c.267.06.482.191.637.388.153.192.232.442.232.737a1.378 1.378 0 0 1-.435 1.014c-.29.276-.655.416-1.098.416-.4 0-.73-.12-.994-.357a1.363 1.363 0 0 1-.451-.923ZM190.411-79.962l-1.32 4.716h-.451l1.32-4.716h.451ZM193.608-75.958v.56h-3.018a1.058 1.058 0 0 1 .064-.4 2.07 2.07 0 0 1 .36-.62 4.99 4.99 0 0 1 .729-.693c.492-.414.838-.735 1.025-.97.18-.24.28-.459.28-.672a.748.748 0 0 0-.244-.556c-.168-.154-.375-.227-.638-.227-.282 0-.498.083-.664.25-.17.162-.25.396-.253.69l-.56-.08c.034-.43.19-.757.448-.982.256-.225.606-.337 1.041-.337.438-.001.789.12 1.045.363.252.24.385.543.385.901-.006.18-.038.361-.113.537a2.14 2.14 0 0 1-.376.557c-.178.194-.462.462-.861.802-.34.28-.555.473-.655.574a1.49 1.49 0 0 0-.25.303h2.255Zm.914.56v-.64h.64v.64c-.007.228-.043.412-.13.553a.872.872 0 0 1-.41.326l-.14-.22a.603.603 0 0 0 .264-.227.987.987 0 0 0 .094-.432h-.318ZM195.95-75.398l.96-4.577h.57l-.344 1.636c.17-.166.328-.273.468-.338a1 1 0 0 1 .439-.1c.294 0 .547.116.746.345.193.227.299.562.299 1-.006.289-.04.557-.12.799-.087.24-.18.445-.299.609a2.25 2.25 0 0 1-.367.393c-.13.096-.256.171-.389.22-.133.046-.26.073-.382.073a.955.955 0 0 1-.557-.167 1.093 1.093 0 0 1-.377-.509l-.137.616h-.51Zm.832-1.351-.003.106c-.003.277.065.497.195.644.129.14.292.221.486.221.187 0 .364-.07.523-.208.155-.143.29-.356.392-.651.1-.295.153-.567.153-.815-.006-.282-.064-.498-.192-.652a.582.582 0 0 0-.474-.232c-.199-.001-.373.08-.536.238-.168.16-.298.405-.407.736a1.728 1.728 0 0 0-.137.613ZM202.653-77.484h-3.02v-.523h3.02v.523Zm0 1.388h-3.02v-.523h3.02v.523ZM205.361-75.398h-.56v-3.582c-.14.123-.31.258-.53.387a4.08 4.08 0 0 1-.588.29v-.543a3.64 3.64 0 0 0 .82-.537c.234-.215.4-.415.498-.612h.36v4.597ZM209.402-74.128h-1.24v-5.834h1.24v.463h-.68v4.904h.68v.467ZM210.593-77.88c-.234-.092-.399-.208-.509-.366a.967.967 0 0 1-.165-.569c-.007-.334.12-.613.358-.84.233-.228.556-.34.953-.34.395-.001.72.116.962.348.239.228.365.515.365.848a1.013 1.013 0 0 1-.163.554 1.087 1.087 0 0 1-.495.364c.273.086.481.24.624.444.141.204.214.448.214.731-.006.388-.137.72-.41.988-.276.266-.633.4-1.08.4-.448 0-.805-.134-1.078-.402a1.343 1.343 0 0 1-.41-1.001 1.194 1.194 0 0 1 .217-.749c.139-.204.35-.338.617-.41Zm-.115-.955a.695.695 0 0 0 .208.532.774.774 0 0 0 .558.207c.226-.001.41-.069.547-.205a.706.706 0 0 0 .206-.503.722.722 0 0 0-.76-.732.738.738 0 0 0-.548.207.65.65 0 0 0-.21.494Zm-.16 2.118a.979.979 0 0 0 .11.466c.069.148.184.267.337.35.15.076.315.123.487.123.27 0 .498-.087.669-.26a.903.903 0 0 0 .256-.66c-.006-.271-.088-.495-.264-.673a.915.915 0 0 0-.68-.266.885.885 0 0 0-.915.92Zm3.293 1.319v-.64h.64v.64c-.007.228-.043.412-.13.553a.872.872 0 0 1-.41.326l-.14-.22a.603.603 0 0 0 .264-.227.987.987 0 0 0 .094-.432h-.318Zm1.57-1.06.56-.04c.038.252.13.436.256.55a.7.7 0 0 0 .484.17.857.857 0 0 0 .76-.44c.078-.134.145-.314.2-.54.048-.227.082-.456.082-.688l-.003-.112a1.28 1.28 0 0 1-1.08.6c-.38 0-.69-.136-.95-.41-.262-.278-.389-.636-.389-1.085-.006-.465.136-.836.406-1.118a1.34 1.34 0 0 1 1.019-.424c.293-.001.563.08.807.24.24.16.43.39.556.686.124.294.19.727.19 1.289-.006.579-.063 1.051-.188 1.398-.13.341-.313.61-.562.792-.25.178-.54.272-.873.272-.36 0-.645-.1-.87-.3-.226-.199-.36-.479-.405-.84Zm2.259-2.027c-.006-.327-.083-.578-.249-.767a.783.783 0 0 0-.615-.284.822.822 0 0 0-.647.306c-.181.2-.268.467-.268.791a.98.98 0 0 0 .255.71.848.848 0 0 0 .645.272c.25 0 .467-.09.631-.273.162-.184.248-.433.248-.755ZM219.71-74.128h-1.236v-.467h.675V-79.5h-.675v-.463h1.236v5.834Z"/><path fill="red" d="M157.811-121.615v-.916h8.96v.916h-8.96ZM172.193-119.743l1.335-6.412h4.66l-.14.717h-3.816l-.423 2.031h3.741l-.16.717h-3.73l-.464 2.23h4.058l-.154.717h-4.907ZM178.276-118.243v-4.577h1.708c.345-.001.627.046.837.139.209.092.375.234.494.427.113.19.179.393.179.603-.006.191-.054.38-.16.552a1.184 1.184 0 0 1-.483.418c.272.08.49.22.639.416.144.19.224.427.224.694-.006.21-.045.414-.135.598-.091.181-.202.327-.335.427a1.527 1.527 0 0 1-.498.226c-.203.05-.444.077-.734.077h-1.736Zm.6-2.658h.982c.266 0 .458-.018.574-.053a.675.675 0 0 0 .346-.227.66.66 0 0 0 .116-.399.787.787 0 0 0-.109-.4.555.555 0 0 0-.31-.236c-.14-.045-.365-.064-.691-.064h-.909v1.379Zm0 2.118h1.147c.195 0 .335-.007.415-.022.14-.03.258-.066.352-.125a.737.737 0 0 0 .233-.255.84.84 0 0 0 .09-.387.74.74 0 0 0-.521-.713c-.16-.057-.376-.077-.665-.077h-1.052v1.58Zm3.415-1.119c0-.61.168-1.06.505-1.353.279-.246.622-.366 1.026-.366.445 0 .815.148 1.1.445.281.294.427.705.427 1.227-.006.419-.063.757-.189 1-.129.238-.309.43-.55.565a1.68 1.68 0 0 1-.788.201c-.46 0-.826-.148-1.108-.443-.283-.3-.423-.72-.423-1.276Zm.56-.002c-.007.415.092.737.276.947.179.208.416.314.695.314a.886.886 0 0 0 .692-.316c.183-.212.276-.531.276-.963-.006-.407-.093-.715-.278-.924a.866.866 0 0 0-.69-.315.88.88 0 0 0-.695.313c-.19.204-.276.523-.276.944Zm3.213 1.661v-3.318h.48v.517c.12-.241.245-.39.352-.465a.572.572 0 0 1 .356-.112c.185 0 .377.057.57.17l-.192.515a.823.823 0 0 0-.396-.105.492.492 0 0 0-.317.11.564.564 0 0 0-.202.306 2.088 2.088 0 0 0-.092.654v1.728h-.56Zm4.38-1.08.587.08c-.099.336-.263.597-.513.782-.251.185-.568.278-.956.278-.491 0-.875-.148-1.161-.444-.29-.302-.43-.712-.43-1.247 0-.556.145-.983.435-1.288.284-.306.664-.459 1.125-.459.44 0 .811.15 1.094.449.279.295.425.72.425 1.262-.006.028-.001.082-.004.148h-2.515c.015.361.126.639.315.83a.956.956 0 0 0 .706.29.89.89 0 0 0 .538-.163c.143-.114.266-.28.353-.517Zm-1.893-.899h1.899c-.032-.275-.098-.481-.218-.619a.897.897 0 0 0-.714-.32.929.929 0 0 0-.667.256c-.187.164-.28.398-.3.683Zm3.153 1.979v-4.577h.56v4.577h-.56ZM196.086-119.64h-3.02v-.524h3.02v.523ZM196.957-118.243v-4.577h1.708c.298-.001.53.014.69.044.216.035.408.109.559.214.144.105.271.252.363.442.085.188.138.398.138.625-.006.387-.123.719-.368.989-.249.264-.688.404-1.33.404h-1.16v1.859h-.6Zm.6-2.398h1.18c.39 0 .668-.073.832-.22.16-.146.246-.35.246-.615a.869.869 0 0 0-.145-.493.67.67 0 0 0-.382-.27c-.105-.029-.29-.041-.563-.041h-1.169v1.639Zm5.714 1.978a2.098 2.098 0 0 1-.589.372 1.806 1.806 0 0 1-.611.108c-.366 0-.636-.088-.83-.264a.87.87 0 0 1-.289-.676.835.835 0 0 1 .11-.44c.07-.14.168-.24.286-.32.113-.088.25-.142.399-.183.104-.035.273-.057.492-.084.445-.058.777-.118.989-.192-.003-.077.003-.125.003-.146-.006-.234-.052-.39-.157-.483-.142-.13-.352-.19-.63-.19-.264 0-.453.047-.577.14-.129.094-.216.26-.275.5l-.56-.08a1.28 1.28 0 0 1 .245-.57c.112-.148.278-.255.493-.333.209-.084.464-.117.747-.117.28 0 .509.033.685.1.172.066.304.15.387.25.077.097.14.228.174.381.015.092.028.267.028.514v.741c-.006.514.012.846.036.987.019.136.072.276.143.405h-.56a.98.98 0 0 1-.14-.42Zm-.04-1.239c-.207.082-.501.152-.902.21-.233.029-.388.069-.482.11a.457.457 0 0 0-.219.18.433.433 0 0 0-.076.263.455.455 0 0 0 .167.369c.11.094.274.147.488.147.208 0 .402-.046.567-.14a.867.867 0 0 0 .365-.382c.057-.131.089-.31.089-.554l.003-.203Zm3.593 1.659v-.43a1.05 1.05 0 0 1-.93.49c-.268 0-.508-.072-.73-.217a1.395 1.395 0 0 1-.516-.605 2.084 2.084 0 0 1-.183-.894c0-.33.055-.626.166-.893a1.27 1.27 0 0 1 .497-.615c.22-.148.467-.214.74-.214a1.113 1.113 0 0 1 .916.45v-1.65h.56v4.578h-.52Zm-1.8-1.657c-.006.42.092.736.274.945a.834.834 0 0 0 .646.312c.244 0 .462-.1.637-.298.17-.2.263-.504.263-.913-.007-.453-.09-.78-.268-.991a.817.817 0 0 0-.658-.316.793.793 0 0 0-.638.304c-.175.2-.256.52-.256.957Zm5.465.578.587.08c-.098.335-.263.596-.512.781-.252.185-.568.278-.956.278-.492 0-.875-.148-1.161-.444-.29-.302-.43-.712-.43-1.247 0-.556.145-.983.434-1.288.285-.306.665-.459 1.126-.459.44 0 .811.15 1.094.449.278.295.424.72.424 1.262-.006.028 0 .082-.003.148h-2.515c.015.361.126.639.315.83a.957.957 0 0 0 .706.29.89.89 0 0 0 .538-.163c.142-.114.266-.28.353-.517Zm-1.892-.9h1.899c-.032-.275-.098-.481-.218-.619a.897.897 0 0 0-.714-.32.929.929 0 0 0-.668.256c-.186.164-.28.398-.299.683Zm.52-1.738.4-.88h.74l-.68.88h-.46ZM214.19-116.973h-1.238v-5.834h1.239v.464h-.68v4.903h.68v.467ZM215.383-120.725c-.234-.092-.399-.208-.509-.366a.967.967 0 0 1-.165-.568c-.007-.335.12-.614.358-.84.233-.229.556-.341.953-.341.395-.001.72.116.962.348.239.229.365.515.365.848a1.013 1.013 0 0 1-.163.555 1.087 1.087 0 0 1-.495.364c.273.085.481.24.624.443.141.204.214.448.214.732-.006.387-.137.72-.41.987-.276.267-.633.4-1.08.4-.448 0-.805-.134-1.078-.402a1.343 1.343 0 0 1-.41-1.001 1.194 1.194 0 0 1 .217-.749c.139-.203.35-.338.617-.41Zm-.115-.955a.695.695 0 0 0 .208.532.774.774 0 0 0 .558.207c.226 0 .41-.068.547-.205a.706.706 0 0 0 .206-.502.722.722 0 0 0-.76-.732.738.738 0 0 0-.548.206.65.65 0 0 0-.21.494Zm-.16 2.119a.979.979 0 0 0 .11.466c.069.147.184.266.337.349.15.077.315.123.487.123.27 0 .498-.086.669-.26a.903.903 0 0 0 .256-.66c-.006-.271-.088-.495-.264-.672a.915.915 0 0 0-.68-.266.885.885 0 0 0-.915.92Zm3.293 1.318v-.64h.64v.64c-.007.228-.043.413-.13.553a.872.872 0 0 1-.41.326l-.14-.22a.603.603 0 0 0 .264-.227.987.987 0 0 0 .094-.432h-.318Zm1.57-1.06.56-.04c.038.253.13.436.256.55a.7.7 0 0 0 .484.17.857.857 0 0 0 .76-.44c.078-.133.145-.313.2-.54.048-.226.082-.456.082-.688l-.003-.112a1.28 1.28 0 0 1-1.08.6c-.38 0-.69-.136-.95-.41-.262-.278-.389-.636-.389-1.085-.006-.465.136-.836.406-1.118a1.34 1.34 0 0 1 1.019-.424c.293-.001.563.08.807.24.24.16.43.39.556.686.124.294.19.727.19 1.29-.006.578-.063 1.05-.188 1.397-.13.342-.313.61-.562.792-.25.179-.54.272-.873.272-.36 0-.645-.1-.87-.299-.226-.2-.36-.48-.405-.84Zm2.259-2.027c-.006-.326-.083-.578-.248-.767a.783.783 0 0 0-.616-.283.822.822 0 0 0-.647.305c-.181.201-.268.468-.268.792a.98.98 0 0 0 .255.709.848.848 0 0 0 .645.272c.25 0 .467-.09.631-.272.162-.185.248-.434.248-.756ZM224.499-116.973h-1.236v-.467h.675v-4.903h-.675v-.464h1.236v5.834Z"/><path fill="#00f" d="M81.189-135.145v-.916h8.96v.916h-8.96ZM95.571-133.273l1.334-6.412h4.66l-.14.717H97.61l-.422 2.03h3.741l-.16.718h-3.73l-.464 2.23h4.058l-.154.717h-4.907ZM103.652-132.184a2.267 2.267 0 0 1-.568.362c-.185.069-.376.109-.584.109-.31 0-.555-.09-.744-.268a.91.91 0 0 1-.282-.687.877.877 0 0 1 .126-.49.927.927 0 0 1 .335-.34c.139-.09.309-.147.51-.185.127-.028.373-.044.726-.058.347-.019.606-.052.759-.112.036-.155.062-.285.062-.388-.006-.137-.047-.237-.142-.312-.136-.112-.32-.158-.571-.158-.237 0-.429.055-.579.166a.913.913 0 0 0-.327.474l-.56-.06c.11-.33.3-.582.55-.757.248-.177.568-.263.95-.263.4 0 .729.098.966.292a.69.69 0 0 1 .273.567c-.006.176-.025.38-.076.612l-.179.821a3.034 3.034 0 0 0-.085.638c-.006.1.022.253.067.448h-.564a2.158 2.158 0 0 1-.063-.41Zm.199-1.28c-.083.028-.16.055-.249.071a5.63 5.63 0 0 1-.464.053 3.184 3.184 0 0 0-.692.11.568.568 0 0 0-.309.213.525.525 0 0 0-.104.324.493.493 0 0 0 .166.388c.109.099.267.152.47.152a1.108 1.108 0 0 0 .953-.56c.095-.176.174-.426.229-.752ZM108.117-133.859h-3.02v-.523h3.02v.523Zm0 1.388h-3.02v-.522h3.02v.522ZM108.747-132.972l.56-.08c.057.318.17.548.32.689.15.137.339.21.566.21.266 0 .49-.091.667-.274a.96.96 0 0 0 .265-.679c-.006-.26-.083-.47-.25-.637a.852.852 0 0 0-.636-.25 1.319 1.319 0 0 0-.392.061l.062-.5a1.171 1.171 0 0 0 .732-.182c.185-.124.284-.318.284-.579a.71.71 0 0 0-.21-.514.74.74 0 0 0-.54-.204.773.773 0 0 0-.547.2c-.146.133-.24.334-.282.6l-.56-.08c.062-.375.224-.665.466-.87.24-.21.543-.31.903-.31.245 0 .476.055.685.162.204.106.368.254.479.44.107.184.166.383.166.591a1.036 1.036 0 0 1-.159.542 1.167 1.167 0 0 1-.47.388c.267.06.482.192.637.388.153.192.232.442.232.737a1.378 1.378 0 0 1-.435 1.014c-.29.276-.655.416-1.098.416-.4 0-.73-.119-.994-.356a1.363 1.363 0 0 1-.451-.923ZM113.79-136.337l-1.32 4.716h-.452l1.32-4.716h.451ZM116.986-132.333v.56h-3.018a1.058 1.058 0 0 1 .064-.4 2.07 2.07 0 0 1 .36-.62 4.99 4.99 0 0 1 .729-.693c.492-.413.838-.734 1.025-.97.18-.24.28-.459.28-.672a.748.748 0 0 0-.244-.556c-.168-.154-.375-.227-.638-.227-.282 0-.498.084-.664.25-.17.162-.25.396-.253.69l-.56-.08c.034-.43.19-.756.448-.981.256-.226.606-.338 1.041-.338.438-.001.789.121 1.045.364.252.24.385.542.385.9-.006.18-.038.362-.113.538-.077.174-.2.361-.376.556-.178.194-.462.462-.861.802-.34.281-.555.474-.655.574a1.49 1.49 0 0 0-.25.303h2.255Zm.914.56v-.64h.64v.64c-.006.228-.043.413-.13.553a.872.872 0 0 1-.41.326l-.14-.22a.603.603 0 0 0 .264-.227.987.987 0 0 0 .094-.432h-.318ZM119.328-131.773l.96-4.577h.57l-.344 1.637c.17-.167.328-.273.468-.34a1 1 0 0 1 .439-.098c.294 0 .547.115.746.344.193.227.299.563.299 1-.006.29-.04.558-.12.8-.087.24-.18.444-.299.608a2.25 2.25 0 0 1-.367.393c-.13.096-.256.172-.389.22-.133.046-.26.073-.382.073a.955.955 0 0 1-.557-.167 1.093 1.093 0 0 1-.377-.508l-.137.615h-.51Zm.832-1.35-.003.105c-.003.277.065.497.195.644.129.141.292.221.486.221.187 0 .364-.07.523-.208.155-.143.29-.356.392-.65.1-.296.153-.567.153-.816-.006-.282-.064-.497-.192-.652a.582.582 0 0 0-.474-.232c-.199 0-.373.08-.536.239-.168.159-.298.404-.407.735a1.728 1.728 0 0 0-.137.613ZM126.03-133.859h-3.02v-.523h3.02v.523Zm0 1.388h-3.02v-.522h3.02v.522ZM128.74-131.773h-.56v-3.582c-.141.123-.311.258-.53.387a4.08 4.08 0 0 1-.59.29v-.543c.307-.152.587-.326.821-.537.234-.215.4-.414.498-.612h.36v4.597ZM132.78-130.503h-1.24v-5.834h1.24v.464h-.68v4.903h.68v.467ZM133.157-134.03c-.007-.543.055-.979.166-1.312.11-.337.277-.589.496-.764.218-.178.494-.264.827-.264.242-.001.462.05.65.148.182.095.34.242.458.428.111.18.21.414.278.682.064.267.103.628.103 1.082-.006.536-.055.973-.165 1.306-.114.33-.275.589-.494.766a1.32 1.32 0 0 1-.83.265c-.443 0-.786-.155-1.038-.465-.305-.393-.451-1.012-.451-1.872Zm.56-.001c-.007.76.089 1.263.268 1.51.176.242.399.368.66.368.26 0 .483-.123.662-.37.175-.25.268-.75.268-1.508-.006-.757-.088-1.258-.265-1.507-.182-.253-.4-.373-.67-.373a.743.743 0 0 0-.633.33c-.197.275-.29.796-.29 1.55Zm3.272 2.258v-.64h.64v.64c-.006.228-.043.413-.13.553a.872.872 0 0 1-.41.326l-.14-.22a.603.603 0 0 0 .264-.227.987.987 0 0 0 .094-.432h-.318Zm3.569 0h-.56v-3.582c-.14.123-.311.258-.53.387a4.082 4.082 0 0 1-.589.29v-.543a3.64 3.64 0 0 0 .82-.537c.235-.215.4-.414.498-.612h.361v4.597ZM143.087-130.503h-1.236v-.467h.675v-4.903h-.675v-.464h1.236v5.834Z"/><path fill="red" d="M59.297-148.675v-.916h8.96v.916h-8.96ZM73.68-146.803l1.333-6.412h4.66l-.14.717h-3.816l-.422 2.03h3.74l-.159.718h-3.73l-.464 2.23h4.058l-.154.717H73.68ZM79.761-145.303v-4.577h1.709c.345-.001.626.046.837.139.208.092.374.234.493.427.113.19.18.393.18.603-.007.191-.054.38-.16.552a1.184 1.184 0 0 1-.484.418c.273.08.49.22.64.415.144.19.223.428.223.695-.006.21-.045.414-.135.598-.09.181-.201.327-.334.427a1.526 1.526 0 0 1-.498.226c-.203.05-.445.077-.735.077h-1.736Zm.6-2.658h.983c.266 0 .458-.018.574-.053a.675.675 0 0 0 .345-.227.66.66 0 0 0 .117-.399.787.787 0 0 0-.109-.4.555.555 0 0 0-.31-.236c-.14-.045-.365-.065-.692-.065h-.908v1.38Zm0 2.118h1.148c.194 0 .335-.007.415-.022.14-.03.257-.067.352-.125a.737.737 0 0 0 .232-.255.84.84 0 0 0 .091-.387.74.74 0 0 0-.522-.713c-.159-.057-.375-.077-.665-.077h-1.05v1.58Zm3.416-1.12c0-.609.168-1.06.504-1.353.28-.246.623-.365 1.026-.365.446 0 .816.148 1.1.445.282.294.428.705.428 1.227-.006.419-.063.757-.19 1-.128.238-.308.43-.55.565a1.679 1.679 0 0 1-.788.201c-.46 0-.826-.148-1.107-.443-.283-.3-.423-.72-.423-1.276Zm.56 0c-.007.414.091.736.275.946.18.208.416.314.695.314a.885.885 0 0 0 .692-.316c.184-.212.276-.531.276-.963-.006-.407-.092-.715-.277-.924a.866.866 0 0 0-.69-.315.88.88 0 0 0-.696.313c-.189.204-.275.523-.275.944Zm3.212 1.66v-3.318h.48v.517c.121-.242.245-.39.353-.465a.572.572 0 0 1 .356-.112c.184 0 .377.057.57.17l-.192.515a.823.823 0 0 0-.396-.105.492.492 0 0 0-.318.11.564.564 0 0 0-.202.306 2.086 2.086 0 0 0-.09.654v1.728h-.56Zm4.38-1.08.587.08c-.098.336-.263.597-.512.782-.252.185-.568.278-.956.278-.492 0-.875-.148-1.161-.444-.29-.302-.43-.712-.43-1.247 0-.557.145-.983.434-1.288.285-.306.665-.459 1.126-.459.44 0 .81.15 1.094.449.278.295.424.72.424 1.261-.006.03 0 .083-.003.149h-2.515c.015.361.126.639.315.83a.957.957 0 0 0 .706.29.89.89 0 0 0 .538-.163c.142-.114.266-.28.353-.517Zm-1.892-.899h1.899c-.032-.275-.098-.481-.218-.619a.897.897 0 0 0-.714-.32.929.929 0 0 0-.668.255c-.187.165-.28.399-.3.684Zm3.153 1.979v-4.577h.56v4.577h-.56ZM97.572-146.7h-3.02v-.524h3.02v.523ZM98.442-145.303v-4.577h1.71c.297-.001.53.014.688.044.217.035.41.109.56.214.144.105.27.252.362.442.086.188.138.398.138.625-.006.387-.122.719-.368.989-.248.264-.688.404-1.328.404h-1.162v1.859h-.6Zm.6-2.398h1.18c.391 0 .668-.073.832-.22.16-.146.247-.35.247-.615a.869.869 0 0 0-.145-.493.67.67 0 0 0-.382-.27c-.106-.029-.29-.042-.564-.042h-1.168v1.64Zm5.715 1.978a2.098 2.098 0 0 1-.59.372 1.806 1.806 0 0 1-.61.108c-.366 0-.636-.088-.83-.264a.87.87 0 0 1-.29-.676.835.835 0 0 1 .11-.441c.07-.14.169-.24.287-.32.113-.087.25-.141.399-.182.104-.035.273-.057.492-.084.445-.058.777-.118.989-.192-.003-.077.003-.125.003-.146-.006-.234-.053-.39-.157-.483-.142-.13-.352-.19-.63-.19-.265 0-.453.047-.577.14-.129.094-.216.26-.275.5l-.56-.08a1.28 1.28 0 0 1 .245-.57c.112-.148.278-.255.492-.333.21-.084.464-.117.747-.117.28 0 .51.033.685.1.173.066.305.15.388.25.077.097.14.228.174.381.015.092.027.267.027.514v.741c-.006.514.012.846.036.987.02.136.072.276.144.405h-.56a.98.98 0 0 1-.14-.42Zm-.04-1.24c-.207.083-.502.153-.902.21-.233.03-.389.07-.483.11a.457.457 0 0 0-.218.18.433.433 0 0 0-.076.264.455.455 0 0 0 .167.369c.109.094.274.147.488.147.208 0 .402-.046.567-.14a.866.866 0 0 0 .365-.382c.057-.131.089-.31.089-.554l.003-.203Zm3.592 1.66v-.43a1.05 1.05 0 0 1-.929.49c-.268 0-.508-.072-.73-.217a1.396 1.396 0 0 1-.516-.605 2.084 2.084 0 0 1-.183-.894c0-.33.055-.626.165-.893a1.27 1.27 0 0 1 .497-.615c.22-.148.468-.214.74-.214a1.113 1.113 0 0 1 .916.45v-1.65h.56v4.578h-.52Zm-1.799-1.658c-.006.42.091.737.274.945a.834.834 0 0 0 .646.313c.243 0 .462-.1.637-.298.17-.2.262-.504.262-.913-.006-.453-.089-.78-.267-.991a.817.817 0 0 0-.658-.316.793.793 0 0 0-.638.304c-.176.2-.256.52-.256.956Zm5.465.579.587.08c-.098.335-.263.596-.512.781-.252.185-.568.278-.956.278-.492 0-.876-.148-1.162-.444-.289-.302-.429-.712-.429-1.247 0-.557.145-.983.434-1.288.285-.306.665-.459 1.125-.459.44 0 .812.15 1.095.449.278.295.424.72.424 1.261-.006.03 0 .083-.003.149h-2.515c.015.361.126.639.315.83a.957.957 0 0 0 .706.29.89.89 0 0 0 .538-.163c.142-.114.266-.28.353-.517Zm-1.892-.9h1.899c-.032-.275-.098-.481-.218-.619a.897.897 0 0 0-.714-.32.929.929 0 0 0-.668.255c-.187.165-.28.399-.3.684Zm.52-1.739.4-.88h.739l-.68.88h-.46ZM115.677-144.033h-1.24v-5.834h1.24v.464h-.68v4.903h.68v.467ZM116.054-147.56c-.007-.543.055-.98.166-1.312.11-.337.277-.589.496-.764.218-.178.494-.264.827-.264.242-.001.462.05.65.148.182.095.34.242.458.428.111.18.21.414.278.682.063.267.103.628.103 1.082-.006.536-.055.973-.165 1.306-.115.33-.275.589-.494.766a1.32 1.32 0 0 1-.83.265c-.443 0-.786-.155-1.038-.465-.305-.393-.451-1.012-.451-1.872Zm.56-.001c-.007.76.089 1.263.267 1.51.177.242.4.368.662.368.26 0 .482-.123.661-.37.175-.25.268-.75.268-1.508-.006-.757-.088-1.258-.266-1.507-.18-.253-.4-.373-.67-.373a.743.743 0 0 0-.632.33c-.197.275-.29.796-.29 1.55Zm3.272 2.258v-.64h.64v.64c-.007.228-.043.413-.13.553a.872.872 0 0 1-.41.326l-.14-.22a.603.603 0 0 0 .264-.227.987.987 0 0 0 .094-.432h-.318Zm3.569 0h-.56v-3.582c-.14.123-.311.258-.53.387a4.08 4.08 0 0 1-.589.29v-.543a3.64 3.64 0 0 0 .82-.537c.235-.215.4-.414.498-.612h.36v4.597ZM125.984-144.033h-1.236v-.467h.675v-4.903h-.675v-.464h1.236v5.834Z"/></svg>